<svg viewBox="0 0 24 24" fill="none" xmlns="http://www.w3.org/2000/svg">
<g clip-path="url(#clip0_11_270)">
<path d="M12 22C17.5228 22 22 17.5228 22 12C22 6.47715 17.5228 2 12 2C6.47715 2 2 6.47715 2 12C2 17.5228 6.47715 22 12 22Z" stroke="currentColor" stroke-width="2"/>
<path fill-rule="evenodd" clip-rule="evenodd" d="M8 12C8 11.4477 8.44772 11 9 11H15C15.5523 11 16 11.4477 16 12C16 12.5523 15.5523 13 15 13H9C8.44772 13 8 12.5523 8 12Z" fill="currentColor"/>
<path fill-rule="evenodd" clip-rule="evenodd" d="M8 16C8 15.4477 8.44772 15 9 15H11C11.5523 15 12 15.4477 12 16C12 16.5523 11.5523 17 11 17H9C8.44772 17 8 16.5523 8 16Z" fill="currentColor"/>
<path fill-rule="evenodd" clip-rule="evenodd" d="M8 8C8 7.44772 8.44772 7 9 7H14C14.5523 7 15 7.44772 15 8C15 8.55228 14.5523 9 14 9H9C8.44772 9 8 8.55228 8 8Z" fill="currentColor"/>
</g>
<defs>
<clipPath id="clip0_11_270">
<rect width="24" height="24" fill="currentColor"/>
</clipPath>
</defs>
</svg>
