<svg viewBox="0 0 20 20" fill="none" xmlns="http://www.w3.org/2000/svg">
<path fill-rule="evenodd" clip-rule="evenodd" d="M7.5 3.875C7.5 3.11561 8.11561 2.5 8.875 2.5H16.125C16.8844 2.5 17.5 3.11561 17.5 3.875V16.125C17.5 16.8844 16.8844 17.5 16.125 17.5H8.875C8.11561 17.5 7.5 16.8844 7.5 16.125V10.9375H6.66449C6.31341 11.6765 5.56012 12.1875 4.6875 12.1875C3.47938 12.1875 2.5 11.2081 2.5 10C2.5 8.79188 3.47938 7.8125 4.6875 7.8125C5.56012 7.8125 6.31341 8.32345 6.66449 9.0625H7.5V3.875ZM9.52483 6.61458C9.7035 5.94774 10.3889 5.55202 11.0558 5.73069C11.7226 5.90937 12.1183 6.59479 11.9396 7.26162C11.761 7.92846 11.0755 8.32418 10.4087 8.14551C9.74188 7.96683 9.34615 7.28141 9.52483 6.61458ZM13.0604 12.7383C13.239 12.0715 13.9245 11.6757 14.5913 11.8544C15.2581 12.0331 15.6539 12.7185 15.4752 13.3854C15.2965 14.0522 14.6111 14.4479 13.9442 14.2692C13.2774 14.0906 12.8817 13.4051 13.0604 12.7383ZM10.78 14.27L15.78 6.77002L14.2199 5.72996L9.21995 13.23L10.78 14.27Z" fill="currentColor"/>
</svg>
