<svg viewBox="0 0 24 24" fill="none" xmlns="http://www.w3.org/2000/svg">
<g clip-path="url(#clip0_11_222)">
<path fill-rule="evenodd" clip-rule="evenodd" d="M9.85431 1.20935C10.5491 1.07191 11.2666 1 12 1C12.7334 1 13.4509 1.07191 14.1457 1.20935L13.7576 3.17133C13.1899 3.05903 12.6023 3 12 3C11.3977 3 10.8101 3.05903 10.2424 3.17133L9.85431 1.20935ZM18.1125 2.85338C19.3116 3.65618 20.3438 4.68839 21.1466 5.88752L19.4847 7.00016C18.8273 6.01827 17.9817 5.17268 16.9998 4.51531L18.1125 2.85338ZM2.85338 5.88752C3.65618 4.68839 4.68839 3.65618 5.88752 2.85338L7.00016 4.51531C6.01827 5.17268 5.17268 6.01827 4.51531 7.00016L2.85338 5.88752ZM22.7906 9.85431C22.9281 10.5491 23 11.2666 23 12C23 12.7334 22.9281 13.4509 22.7906 14.1457L20.8287 13.7576C20.941 13.1899 21 12.6023 21 12C21 11.3977 20.941 10.8101 20.8287 10.2424L22.7906 9.85431ZM1 12C1 11.2666 1.07191 10.5491 1.20935 9.85431L3.17133 10.2424C3.05903 10.8101 3 11.3977 3 12C3 12.6023 3.05903 13.1899 3.17133 13.7576L1.20935 14.1457C1.07191 13.4509 1 12.7334 1 12ZM21.1466 18.1125C20.3438 19.3116 19.3116 20.3438 18.1125 21.1466L16.9998 19.4847C17.9817 18.8273 18.8273 17.9817 19.4847 16.9998L21.1466 18.1125ZM5.88752 21.1466C4.68839 20.3438 3.65618 19.3116 2.85338 18.1125L4.51531 16.9998C5.17268 17.9817 6.01827 18.8273 7.00016 19.4847L5.88752 21.1466ZM12 23C11.2666 23 10.5491 22.9281 9.85431 22.7906L10.2424 20.8287C10.8101 20.941 11.3977 21 12 21C12.6023 21 13.1899 20.941 13.7576 20.8287L14.1457 22.7906C13.4509 22.9281 12.7334 23 12 23Z" fill="currentColor"/>
<path d="M12 14C10.8954 14 10 13.1046 10 12C10 10.8954 10.8954 10 12 10C13.1046 10 14 10.8954 14 12C14 13.1046 13.1046 14 12 14Z" fill="currentColor"/>
</g>
<defs>
<clipPath id="clip0_11_222">
<rect width="24" height="24" fill="currentColor"/>
</clipPath>
</defs>
</svg>
