<svg viewBox="0 0 24 24" fill="none" xmlns="http://www.w3.org/2000/svg">
<g clip-path="url(#clip0_11_257)">
<path d="M12 22C17.5228 22 22 17.5228 22 12C22 6.47715 17.5228 2 12 2C6.47715 2 2 6.47715 2 12C2 17.5228 6.47715 22 12 22Z" stroke="currentColor" stroke-width="2"/>
<path fill-rule="evenodd" clip-rule="evenodd" d="M7.25 7.2C7.25 6.67533 7.67533 6.25 8.2 6.25H15.8C16.3247 6.25 16.75 6.67533 16.75 7.2V16.6764C16.75 17.3826 16.0068 17.8419 15.3751 17.5261L14 16.8385L12.4249 17.6261C12.1574 17.7598 11.8426 17.7598 11.5751 17.6261L10 16.8385L8.62485 17.5261C7.9932 17.8419 7.25 17.3826 7.25 16.6764V7.2ZM8.75 7.75V15.7865L9.57515 15.3739C9.8426 15.2402 10.1574 15.2402 10.4249 15.3739L12 16.1615L13.5751 15.3739C13.8426 15.2402 14.1574 15.2402 14.4249 15.3739L15.25 15.7865V7.75H8.75Z" fill="currentColor"/>
<path fill-rule="evenodd" clip-rule="evenodd" d="M8 10.5C8 10.2239 8.22386 10 8.5 10L8.68421 10C8.96035 10 9.18421 10.2239 9.18421 10.5C9.18421 10.7761 8.96035 11 8.68421 11L8.5 11C8.22386 11 8 10.7761 8 10.5ZM9.56579 10.5C9.56579 10.2239 9.78965 10 10.0658 10L10.4342 10C10.7104 10 10.9342 10.2239 10.9342 10.5C10.9342 10.7761 10.7104 11 10.4342 11L10.0658 11C9.78965 11 9.56579 10.7761 9.56579 10.5ZM11.3158 10.5C11.3158 10.2239 11.5396 10 11.8158 10L12.1842 10C12.4604 10 12.6842 10.2239 12.6842 10.5C12.6842 10.7761 12.4604 11 12.1842 11L11.8158 11C11.5396 11 11.3158 10.7761 11.3158 10.5ZM13.0658 10.5C13.0658 10.2239 13.2896 10 13.5658 10L13.9342 10C14.2104 10 14.4342 10.2239 14.4342 10.5C14.4342 10.7761 14.2104 11 13.9342 11L13.5658 11C13.2896 11 13.0658 10.7761 13.0658 10.5ZM14.8158 10.5C14.8158 10.2239 15.0396 10 15.3158 10L15.5 10C15.7761 10 16 10.2239 16 10.5C16 10.7761 15.7761 11 15.5 11L15.3158 11C15.0396 11 14.8158 10.7761 14.8158 10.5Z" fill="currentColor"/>
</g>
<defs>
<clipPath id="clip0_11_257">
<rect width="24" height="24" fill="currentColor"/>
</clipPath>
</defs>
</svg>
