<svg viewBox="0 0 20 20" fill="none" xmlns="http://www.w3.org/2000/svg">
<path fill-rule="evenodd" clip-rule="evenodd" d="M7.5 3.875C7.5 3.11561 8.11561 2.5 8.875 2.5H16.125C16.8844 2.5 17.5 3.11561 17.5 3.875V16.125C17.5 16.8844 16.8844 17.5 16.125 17.5H8.875C8.11561 17.5 7.5 16.8844 7.5 16.125V10.9375H6.66449C6.31341 11.6765 5.56012 12.1875 4.6875 12.1875C3.47938 12.1875 2.5 11.2081 2.5 10C2.5 8.79188 3.47938 7.8125 4.6875 7.8125C5.56012 7.8125 6.31341 8.32345 6.66449 9.0625H7.5V3.875ZM10 7.1875H11.875V5.3125H10V7.1875ZM10 10.9375H11.875V9.0625H10V10.9375ZM11.875 14.6875H10V12.8125H11.875V14.6875ZM13.125 7.1875H15V5.3125H13.125V7.1875ZM15 10.9375H13.125V9.0625H15V10.9375ZM13.125 14.6875H15V12.8125H13.125V14.6875Z" fill="currentColor"/>
</svg>
