<svg viewBox="0 0 24 24" fill="none" xmlns="http://www.w3.org/2000/svg">
<g clip-path="url(#clip0_11_236)">
<path d="M12 22C17.5228 22 22 17.5228 22 12C22 6.47715 17.5228 2 12 2C6.47715 2 2 6.47715 2 12C2 17.5228 6.47715 22 12 22Z" stroke="white" stroke-width="2"/>
<path fill-rule="evenodd" clip-rule="evenodd" d="M13.619 12.0268C13.3824 11.9709 13.1335 12.0031 12.9188 12.1174L3.52996 17.1174C3.04249 17.377 2.85776 17.9826 3.11736 18.47C3.37696 18.9575 3.98258 19.1422 4.47005 18.8826L13.5259 14.06L20.7699 15.7732C21.3073 15.9003 21.8461 15.5676 21.9732 15.0301C22.1003 14.4927 21.7676 13.954 21.2302 13.8268L13.619 12.0268Z" fill="white"/>
<path d="M7.68063 11C6.85218 11 6.18063 10.3284 6.18063 9.5C6.18063 8.67157 6.85218 8 7.68063 8C8.50908 8 9.18063 8.67157 9.18063 9.5C9.18063 10.3284 8.50908 11 7.68063 11Z" fill="white"/>
</g>
<defs>
<clipPath id="clip0_11_236">
<rect width="24" height="24" fill="white"/>
</clipPath>
</defs>
</svg>
