<svg viewBox="0 0 20 20" fill="none" xmlns="http://www.w3.org/2000/svg">
<path fill-rule="evenodd" clip-rule="evenodd" d="M7.5 3.875C7.5 3.11561 8.11561 2.5 8.875 2.5H16.125C16.8844 2.5 17.5 3.11561 17.5 3.875V16.125C17.5 16.8844 16.8844 17.5 16.125 17.5H8.875C8.11561 17.5 7.5 16.8844 7.5 16.125V10.9375H6.66449C6.31341 11.6765 5.56012 12.1875 4.6875 12.1875C3.47938 12.1875 2.5 11.2081 2.5 10C2.5 8.79188 3.47938 7.8125 4.6875 7.8125C5.56012 7.8125 6.31341 8.32345 6.66449 9.0625H7.5V3.875ZM15.7984 7.99134L12.7215 12.9913C12.5599 13.2539 12.2797 13.4202 11.9718 13.4362C11.664 13.4523 11.3679 13.3159 11.18 13.0716L9.25692 10.5716L10.7431 9.4284L11.8372 10.8508L14.2016 7.00866L15.7984 7.99134Z" fill="currentColor"/>
</svg>
