<svg viewBox="0 0 24 24" fill="none" xmlns="http://www.w3.org/2000/svg">
  <path
    d="M2.64907 3.00005C2.45977 2.99761 2.27907 3.079 2.15546 3.2224C2.03184 3.36579 1.97796 3.55651 2.00827 3.74339L4.72848 20.2569C4.79844 20.674 5.15781 20.9807 5.58075 20.9842H18.6307C18.9482 20.9883 19.2207 20.7593 19.2715 20.4459L21.9917 3.74659C22.022 3.55971 21.9682 3.36899 21.8445 3.2256C21.7209 3.08221 21.5402 3.00082 21.3509 3.00326L2.64907 3.00005ZM14.1034 14.935H9.93821L8.8104 9.04283H15.1127L14.1034 14.935Z"
    fill="#2684FF" />
  <path fill-rule="evenodd" clip-rule="evenodd"
    d="M21.1102 9.03467H15.1011L14.0926 14.9222H9.93072L5.01648 20.7552C5.17224 20.8899 5.37083 20.9648 5.57674 20.9665H18.6195C18.9367 20.9706 19.2091 20.7418 19.2598 20.4287L21.1102 9.03467Z"
    fill="url(#paint0_linear_129_19)" />
  <defs>
    <linearGradient id="paint0_linear_129_19" x1="1753.33" y1="173.91" x2="1059.18" y2="1159.52"
      gradientUnits="userSpaceOnUse">
      <stop offset="0.18" stop-color="#0052CC" />
      <stop offset="1" stop-color="#2684FF" />
    </linearGradient>
  </defs>
</svg>