<svg viewBox="0 0 20 20" fill="none" xmlns="http://www.w3.org/2000/svg">
<path d="M13.75 3.75C13.75 3.05964 14.3096 2.5 15 2.5H16.25C16.9404 2.5 17.5 3.05964 17.5 3.75V16.25C17.5 16.9404 16.9404 17.5 16.25 17.5H15C14.3096 17.5 13.75 16.9404 13.75 16.25V3.75Z" fill="currentColor"/>
<path d="M8.125 7.5C8.125 6.80964 8.68464 6.25 9.375 6.25H10.625C11.3154 6.25 11.875 6.80964 11.875 7.5V16.25C11.875 16.9404 11.3154 17.5 10.625 17.5H9.375C8.68464 17.5 8.125 16.9404 8.125 16.25V7.5Z" fill="currentColor"/>
<path d="M3.75 10C3.05964 10 2.5 10.5596 2.5 11.25V16.25C2.5 16.9404 3.05964 17.5 3.75 17.5H5C5.69036 17.5 6.25 16.9404 6.25 16.25V11.25C6.25 10.5596 5.69036 10 5 10H3.75Z" fill="currentColor"/>
</svg>
