<svg viewBox="0 0 20 20" fill="none" xmlns="http://www.w3.org/2000/svg">
<path fill-rule="evenodd" clip-rule="evenodd" d="M14.6875 5H17.1875V6.875H16.0795L15.1033 17.6132C15.0448 18.257 14.505 18.75 13.8585 18.75H6.14152C5.49501 18.75 4.95518 18.257 4.89665 17.6132L3.92045 6.875H2.8125V5H5.3125V3.4375C5.3125 2.22938 6.29188 1.25 7.5 1.25H12.5C13.7081 1.25 14.6875 2.22938 14.6875 3.4375V5ZM7.5 3.125C7.32741 3.125 7.1875 3.26491 7.1875 3.4375V5H12.8125V3.4375C12.8125 3.26491 12.6726 3.125 12.5 3.125H7.5ZM7.1875 7.5V16.25H9.0625V7.5H7.1875ZM10.9375 7.5V16.25H12.8125V7.5H10.9375Z" fill="currentColor"/>
</svg>
