<svg viewBox="0 0 20 20" fill="none" xmlns="http://www.w3.org/2000/svg">
<path d="M6.25 1.875C5.21447 1.875 4.375 2.71447 4.375 3.75C4.375 4.78553 5.21447 5.625 6.25 5.625C7.28553 5.625 8.125 4.78553 8.125 3.75C8.125 2.71447 7.28553 1.875 6.25 1.875Z" fill="currentColor"/>
<path d="M13.75 1.875C12.7145 1.875 11.875 2.71447 11.875 3.75C11.875 4.78553 12.7145 5.625 13.75 5.625C14.7855 5.625 15.625 4.78553 15.625 3.75C15.625 2.71447 14.7855 1.875 13.75 1.875Z" fill="currentColor"/>
<path d="M4.375 10C4.375 8.96447 5.21447 8.125 6.25 8.125C7.28553 8.125 8.125 8.96447 8.125 10C8.125 11.0355 7.28553 11.875 6.25 11.875C5.21447 11.875 4.375 11.0355 4.375 10Z" fill="currentColor"/>
<path d="M13.75 8.125C12.7145 8.125 11.875 8.96447 11.875 10C11.875 11.0355 12.7145 11.875 13.75 11.875C14.7855 11.875 15.625 11.0355 15.625 10C15.625 8.96447 14.7855 8.125 13.75 8.125Z" fill="currentColor"/>
<path d="M4.375 16.25C4.375 15.2145 5.21447 14.375 6.25 14.375C7.28553 14.375 8.125 15.2145 8.125 16.25C8.125 17.2855 7.28553 18.125 6.25 18.125C5.21447 18.125 4.375 17.2855 4.375 16.25Z" fill="currentColor"/>
<path d="M13.75 14.375C12.7145 14.375 11.875 15.2145 11.875 16.25C11.875 17.2855 12.7145 18.125 13.75 18.125C14.7855 18.125 15.625 17.2855 15.625 16.25C15.625 15.2145 14.7855 14.375 13.75 14.375Z" fill="currentColor"/>
</svg>
