<svg viewBox="0 0 20 20" fill="none" xmlns="http://www.w3.org/2000/svg">
<path d="M16.8371 1.83716L18.163 3.16298L16.9203 4.40564L15.5945 3.07982L16.8371 1.83716Z" fill="currentColor"/>
<path d="M8.75007 11.25L10.0758 11.2501L15.6643 5.66161L14.3384 4.33578L8.75 9.92423L8.75007 11.25Z" fill="currentColor"/>
<path d="M4.6875 5C4.6875 4.82741 4.82741 4.6875 5 4.6875H10V2.8125H5C3.79188 2.8125 2.8125 3.79188 2.8125 5V15C2.8125 16.2081 3.79188 17.1875 5 17.1875H15C16.2081 17.1875 17.1875 16.2081 17.1875 15V10H15.3125V15C15.3125 15.1726 15.1726 15.3125 15 15.3125H5C4.82741 15.3125 4.6875 15.1726 4.6875 15V5Z" fill="currentColor"/>
</svg>
