<svg viewBox="0 0 20 20" fill="none" xmlns="http://www.w3.org/2000/svg">
<path d="M16.25 3.8125L11.25 3.8125L11.25 5.6875L13.9867 5.6875L9.33707 10.3371L10.6629 11.6629L15.3125 7.01332L15.3125 9.74996L17.1875 9.74995L17.1875 4.75C17.1875 4.23223 16.7678 3.8125 16.25 3.8125Z" fill="currentColor"/>
<path d="M5.9375 7.25C5.9375 7.07741 6.07741 6.9375 6.25 6.9375H8.75V5.0625H6.25C5.04188 5.0625 4.0625 6.04188 4.0625 7.25V14.75C4.0625 15.9581 5.04188 16.9375 6.25 16.9375H13.75C14.9581 16.9375 15.9375 15.9581 15.9375 14.75V12.25H14.0625V14.75C14.0625 14.9226 13.9226 15.0625 13.75 15.0625H6.25C6.07741 15.0625 5.9375 14.9226 5.9375 14.75V7.25Z" fill="currentColor"/>
</svg>
