<svg viewBox="0 0 24 24" fill="none" xmlns="http://www.w3.org/2000/svg">
<path d="M12.2222 16.3529C12.2222 17.8149 11.0283 19 9.55556 19C8.0828 19 6.88889 17.8149 6.88889 16.3529M12.2222 16.3529C12.2222 14.891 11.0283 13.7059 9.55556 13.7059C8.0828 13.7059 6.88889 14.891 6.88889 16.3529M12.2222 16.3529H17.1111M6.88889 16.3529C5.25926 16.3529 2 15.3824 2 11.5C2 7.61765 5.25926 6.64706 6.88889 6.64706M12.2222 6.64706C12.2222 8.10899 11.0283 9.29412 9.55556 9.29412C8.0828 9.29412 6.88889 8.10899 6.88889 6.64706M12.2222 6.64706C12.2222 5.18513 11.0283 4 9.55556 4C8.0828 4 6.88889 5.18513 6.88889 6.64706M12.2222 6.64706H17.1111M22 6.64706C22 8.10899 20.8061 9.29412 19.3333 9.29412C17.8606 9.29412 16.6667 8.10899 16.6667 6.64706C16.6667 5.18513 17.8606 4 19.3333 4C20.8061 4 22 5.18513 22 6.64706ZM22 16.3529C22 17.8149 20.8061 19 19.3333 19C17.8606 19 16.6667 17.8149 16.6667 16.3529C16.6667 14.891 17.8606 13.7059 19.3333 13.7059C20.8061 13.7059 22 14.891 22 16.3529Z" stroke="currentColor" stroke-width="2"/>
</svg>
