<svg viewBox="0 0 20 20" fill="none" xmlns="http://www.w3.org/2000/svg">
<path d="M8.75 2.8125L3.75001 2.8125C3.23225 2.8125 2.81251 3.23223 2.81251 3.75L2.8125 8.74995L4.6875 8.74996L4.68751 6.01332L7.46209 8.7879L8.78791 7.46208L6.01334 4.6875L8.75 4.6875V2.8125Z" fill="currentColor"/>
<path d="M16.25 2.8125L11.25 2.8125V4.6875L13.9867 4.6875L11.2121 7.46209L12.5379 8.78791L15.3125 6.01332L15.3125 8.74996L17.1875 8.74995L17.1875 3.75C17.1875 3.23223 16.7677 2.8125 16.25 2.8125Z" fill="currentColor"/>
<path d="M16.25 17.1875L11.25 17.1875V15.3125L13.9867 15.3125L11.2121 12.5379L12.5379 11.2121L15.3125 13.9867L15.3125 11.25L17.1875 11.25L17.1875 16.25C17.1875 16.7678 16.7677 17.1875 16.25 17.1875Z" fill="currentColor"/>
<path d="M3.75001 17.1875L8.75 17.1875V15.3125L6.01334 15.3125L8.78791 12.5379L7.46209 11.2121L4.68751 13.9867L4.6875 11.25L2.8125 11.25L2.81251 16.25C2.81251 16.7678 3.23225 17.1875 3.75001 17.1875Z" fill="currentColor"/>
</svg>
