<svg viewBox="0 0 20 20" fill="none" xmlns="http://www.w3.org/2000/svg">
<path fill-rule="evenodd" clip-rule="evenodd" d="M10 4.6875C7.06599 4.6875 4.6875 7.06599 4.6875 10C4.6875 11.3039 5.15701 12.4986 5.9375 13.4237V11.25H7.8125V15.4139C7.8125 15.9316 7.39277 16.3514 6.875 16.3514H2.5V14.4764H4.37646C3.39803 13.2488 2.8125 11.693 2.8125 10C2.8125 6.03045 6.03045 2.8125 10 2.8125V4.6875ZM12.1875 4.58614C12.1875 4.06837 12.6072 3.64864 13.125 3.64864H17.5V5.52364H15.6235C16.602 6.75125 17.1875 8.30702 17.1875 10C17.1875 13.9695 13.9695 17.1875 10 17.1875V15.3125C12.934 15.3125 15.3125 12.934 15.3125 10C15.3125 8.69614 14.843 7.50144 14.0625 6.57633V8.75H12.1875V4.58614Z" fill="currentColor"/>
</svg>
