<svg viewBox="0 0 24 24" fill="none" xmlns="http://www.w3.org/2000/svg">
  <path
    d="M21.6671 9.5857L21.639 9.51421L18.9168 2.44581C18.8614 2.30728 18.7634 2.18976 18.6367 2.11011C18.5099 2.03182 18.3621 1.99411 18.2131 2.00208C18.0641 2.01005 17.9212 2.06331 17.8036 2.15467C17.6873 2.24865 17.6029 2.37599 17.562 2.51938L15.724 8.11441H8.28124L6.44321 2.51938C6.40335 2.37521 6.31881 2.24723 6.20162 2.15363C6.08402 2.06227 5.94109 2.00901 5.79211 2.00105C5.64312 1.99308 5.49527 2.03079 5.36851 2.10908C5.24212 2.18904 5.14414 2.30646 5.08838 2.44478L2.36102 9.51006L2.33394 9.58156C1.94208 10.6003 1.89371 11.7181 2.19613 12.7666C2.49855 13.815 3.13537 14.7373 4.01056 15.3942L4.01993 15.4014L4.04493 15.419L8.19168 18.5087L10.2432 20.0536L11.4928 20.9923C11.639 21.1027 11.8175 21.1625 12.001 21.1625C12.1846 21.1625 12.3631 21.1027 12.5092 20.9923L13.7589 20.0536L15.8104 18.5087L19.9821 15.4004L19.9926 15.3921C20.8658 14.7351 21.5011 13.8138 21.8031 12.7668C22.105 11.7197 22.0573 10.6034 21.6671 9.5857Z"
    fill="currentColor" />
</svg>