<svg viewBox="0 0 24 24" fill="none" xmlns="http://www.w3.org/2000/svg">
  <path
    d="M21.6671 9.5857L21.639 9.51421L18.9168 2.44581C18.8614 2.30728 18.7634 2.18976 18.6367 2.11011C18.5099 2.03182 18.3621 1.99411 18.2131 2.00208C18.0641 2.01005 17.9212 2.06331 17.8036 2.15467C17.6873 2.24865 17.6029 2.37599 17.562 2.51938L15.724 8.11441H8.28124L6.44321 2.51938C6.40335 2.37521 6.31881 2.24723 6.20162 2.15363C6.08402 2.06227 5.94109 2.00901 5.79211 2.00105C5.64312 1.99308 5.49527 2.03079 5.36851 2.10908C5.24212 2.18904 5.14414 2.30646 5.08838 2.44478L2.36102 9.51006L2.33394 9.58156C1.94208 10.6003 1.89371 11.7181 2.19613 12.7666C2.49855 13.815 3.13537 14.7373 4.01056 15.3942L4.01993 15.4014L4.04493 15.419L8.19168 18.5087L10.2432 20.0536L11.4928 20.9923C11.639 21.1027 11.8175 21.1625 12.001 21.1625C12.1846 21.1625 12.3631 21.1027 12.5092 20.9923L13.7589 20.0536L15.8104 18.5087L19.9821 15.4004L19.9926 15.3921C20.8658 14.7351 21.5011 13.8138 21.8031 12.7668C22.105 11.7197 22.0573 10.6034 21.6671 9.5857Z"
    fill="#E24329" />
  <path
    d="M21.6671 9.58565L21.639 9.51416C20.3126 9.78504 19.0627 10.344 17.9785 11.1512L12 15.649C14.0359 17.1814 15.8083 18.5128 15.8083 18.5128L19.9801 15.4045L19.9905 15.3962C20.865 14.7392 21.5013 13.8173 21.8037 12.7694C22.106 11.7215 22.0581 10.6041 21.6671 9.58565Z"
    fill="#FC6D26" />
  <path
    d="M8.19171 18.513L10.2432 20.0578L11.4929 20.9966C11.639 21.107 11.8175 21.1668 12.0011 21.1668C12.1846 21.1668 12.3631 21.107 12.5093 20.9966L13.7589 20.0578L15.8104 18.513C15.8104 18.513 14.0359 17.1774 12 15.6492C9.96413 17.1774 8.19171 18.513 8.19171 18.513Z"
    fill="#FCA326" />
  <path
    d="M6.02042 11.1515C4.93717 10.3426 3.68753 9.78217 2.36102 9.51025L2.33394 9.58175C1.94208 10.6005 1.89371 11.7183 2.19613 12.7668C2.49855 13.8152 3.13537 14.7374 4.01056 15.3944L4.01993 15.4016L4.04493 15.4192L8.19168 18.5089C8.19168 18.5089 9.96203 17.1775 12 15.6451L6.02042 11.1515Z"
    fill="#FC6D26" />
</svg>