<svg viewBox="0 0 20 20" fill="none" xmlns="http://www.w3.org/2000/svg">
<path d="M7.22595 6.34898L7.81861 5.82708C8.08545 5.54992 8.89955 4.99648 10.0212 5.00002C11.4232 5.00444 12.7933 5.86058 13.0876 7.37117C13.3231 8.57963 12.5748 9.54448 12.1713 9.87585C12.0528 9.97026 11.7481 10.1946 11.4771 10.3368C11.1383 10.5145 10.8659 10.7518 10.8659 10.9239V11.8913H9.1715V10.9239C9.1715 10.6808 9.22471 10.0201 9.78786 9.47911C10.2384 9.04633 10.6289 8.83762 10.7678 8.78736C10.9881 8.66616 11.4285 8.3137 11.4285 7.92348C11.4285 7.43572 11.2068 6.92941 10.3421 6.72987C9.6504 6.57024 9.0636 6.95602 8.85667 7.16886L8.33608 7.62273L7.22595 6.34898Z" fill="currentColor"/>
<path d="M9.16757 13.3016V15H10.8659V13.3016H9.16757Z" fill="currentColor"/>
<path fill-rule="evenodd" clip-rule="evenodd" d="M10 1.5625C5.3401 1.5625 1.5625 5.3401 1.5625 10C1.5625 14.6599 5.3401 18.4375 10 18.4375C14.6599 18.4375 18.4375 14.6599 18.4375 10C18.4375 5.3401 14.6599 1.5625 10 1.5625ZM3.3125 10C3.3125 6.3066 6.3066 3.3125 10 3.3125C13.6934 3.3125 16.6875 6.3066 16.6875 10C16.6875 13.6934 13.6934 16.6875 10 16.6875C6.3066 16.6875 3.3125 13.6934 3.3125 10Z" fill="currentColor"/>
</svg>
