<svg viewBox="0 0 20 20" fill="none" xmlns="http://www.w3.org/2000/svg">
<path fill-rule="evenodd" clip-rule="evenodd" d="M11.1656 2.15644C11.2813 1.83822 11.6974 1.77426 11.8954 2.04893C13.1021 3.72282 16.25 8.38065 16.25 11.4189C16.25 14.9951 13.4518 17.8943 10 17.8943C6.54823 17.8943 3.75 14.9951 3.75 11.4189C3.75 9.24694 5.31723 7.05734 6.04992 6.15237C6.22978 5.93022 6.56592 5.96415 6.71297 6.20924L8.10369 8.52711C8.28977 8.83724 8.75237 8.79277 8.87597 8.45288L11.1656 2.15644ZM12.8327 11.8772C12.8679 11.6425 12.6721 11.449 12.4348 11.449H7.565C7.32769 11.449 7.13193 11.6425 7.1671 11.8772C7.37378 13.2561 8.56336 14.3136 9.9999 14.3136C11.4365 14.3136 12.626 13.2561 12.8327 11.8772Z" fill="currentColor"/>
</svg>
