<svg viewBox="0 0 20 20" fill="none" xmlns="http://www.w3.org/2000/svg">
<path fill-rule="evenodd" clip-rule="evenodd" d="M10 4.6875C8.4467 4.6875 7.1875 5.9467 7.1875 7.5H5.3125C5.3125 4.91117 7.41117 2.8125 10 2.8125C12.5888 2.8125 14.6875 4.91117 14.6875 7.5C14.6875 8.99504 13.9865 10.3269 12.8991 11.1837C12.3589 11.6093 11.8527 12.0345 11.4801 12.4927C11.1117 12.9459 10.9375 13.3543 10.9375 13.75H9.0625C9.0625 12.765 9.50547 11.9493 10.0253 11.3099C10.5411 10.6755 11.1943 10.1398 11.7387 9.71088C12.3943 9.19433 12.8125 8.39627 12.8125 7.5C12.8125 5.9467 11.5533 4.6875 10 4.6875Z" fill="currentColor"/>
<rect x="9.0625" y="15.3125" width="1.875" height="1.875" fill="currentColor"/>
</svg>
