<svg width="20" height="20" viewBox="0 0 20 20" fill="none" xmlns="http://www.w3.org/2000/svg">
<path fill-rule="evenodd" clip-rule="evenodd" d="M3.16431 11.7679L9.41431 6.76795C9.7567 6.49403 10.2432 6.49403 10.5856 6.76795L16.8356 11.7679L15.6643 13.2321L9.99996 8.7006L4.33561 13.2321L3.16431 11.7679Z" fill="white"/>
<path fill-rule="evenodd" clip-rule="evenodd" d="M3.16431 16.7679L9.41431 11.7679C9.7567 11.494 10.2432 11.494 10.5856 11.7679L16.8356 16.7679L15.6643 18.2321L9.99996 13.7006L4.33561 18.2321L3.16431 16.7679Z" fill="white"/>
<path fill-rule="evenodd" clip-rule="evenodd" d="M3.16431 6.76793L9.41431 1.76793C9.7567 1.49401 10.2432 1.49401 10.5856 1.76793L16.8356 6.76793L15.6643 8.23206L9.99996 3.70058L4.33561 8.23206L3.16431 6.76793Z" fill="white"/>
</svg>
