<svg viewBox="0 0 20 20" fill="none" xmlns="http://www.w3.org/2000/svg">
<path d="M9.0625 5V6.875H10.9375V5L9.0625 5Z" fill="currentColor"/>
<path d="M9.0625 8.125L9.0625 15H10.9375L10.9375 8.125H9.0625Z" fill="currentColor"/>
<path fill-rule="evenodd" clip-rule="evenodd" d="M10 1.5625C5.3401 1.5625 1.5625 5.3401 1.5625 10C1.5625 14.6599 5.3401 18.4375 10 18.4375C14.6599 18.4375 18.4375 14.6599 18.4375 10C18.4375 5.3401 14.6599 1.5625 10 1.5625ZM3.3125 10C3.3125 6.3066 6.3066 3.3125 10 3.3125C13.6934 3.3125 16.6875 6.3066 16.6875 10C16.6875 13.6934 13.6934 16.6875 10 16.6875C6.3066 16.6875 3.3125 13.6934 3.3125 10Z" fill="currentColor"/>
</svg>
