<svg viewBox="0 0 24 24" fill="none" xmlns="http://www.w3.org/2000/svg">
<path fill-rule="evenodd" clip-rule="evenodd" d="M1 5C1 3.89543 1.89543 3 3 3H21C22.1046 3 23 3.89543 23 5V14.5858C23 15.1162 22.7893 15.6249 22.4142 16L18 20.4142C17.6249 20.7893 17.1162 21 16.5858 21H3C1.89543 21 1 20.1046 1 19V5ZM21 5H3V19H16.5858L21 14.5858L21 5Z" fill="currentColor"/>
<path fill-rule="evenodd" clip-rule="evenodd" d="M10.5 13L10.5 7L13.5 7L13.5 13L10.5 13ZM10.5 17L10.5 15L13.5 15L13.5 17L10.5 17Z" fill="currentColor"/>
</svg>
