<svg version="1.0" xmlns="http://www.w3.org/2000/svg" viewBox="0 0 300.000000 300.000000"
 preserveAspectRatio="xMidYMid meet">
<g transform="translate(0.000000,300.000000) scale(0.100000,-0.100000)" fill="currentColor" stroke="none">
<path d="M1400 2973 c0 -33 17 -247 25 -315 l6 -48 -41 0 -40 0 0 -42 c0 -24
7 -106 15 -183 8 -77 15 -148 15 -157 0 -16 12 -18 108 -18 l108 0 28 343 c15
188 30 366 33 395 l6 52 -132 0 -131 0 0 -27z"/>
<path d="M993 2923 c-72 -27 -93 -39 -93 -54 0 -10 34 -92 75 -181 l74 -163
-30 -13 c-16 -7 -32 -18 -35 -25 -4 -10 146 -340 161 -356 2 -1 41 12 87 29
46 18 90 35 99 39 14 5 4 51 -77 346 -52 187 -99 357 -104 378 -14 47 -32 47
-157 0z"/>
<path d="M1917 2927 c-8 -12 -34 -95 -58 -185 l-44 -163 -41 7 c-35 5 -43 3
-48 -13 -3 -10 -24 -90 -46 -178 -23 -88 -43 -167 -46 -176 -3 -13 5 -18 33
-24 20 -3 65 -18 100 -32 35 -14 65 -24 67 -22 2 2 77 163 167 357 137 299
160 355 148 366 -8 7 -60 29 -116 49 l-103 36 -13 -22z"/>
<path d="M551 2675 c-50 -42 -91 -82 -91 -88 0 -5 59 -70 132 -144 l132 -133
-22 -23 c-12 -13 -22 -30 -22 -38 0 -17 260 -279 277 -279 7 0 13 4 13 10 0 5
31 35 70 66 39 31 70 60 70 64 0 12 -444 633 -456 637 -6 2 -52 -31 -103 -72z"/>
<path d="M2274 2560 c-58 -82 -112 -150 -119 -150 -7 0 -18 7 -25 15 -7 9 -21
15 -31 13 -16 -3 -229 -298 -229 -317 0 -4 19 -22 43 -39 23 -17 56 -45 74
-61 18 -17 36 -31 40 -31 4 0 131 123 282 274 176 176 272 279 270 289 -5 20
-168 157 -186 157 -7 0 -60 -67 -119 -150z"/>
<path d="M208 2281 c-32 -55 -55 -106 -52 -114 3 -8 81 -50 173 -93 l168 -79
-15 -33 c-23 -47 -38 -37 285 -183 l63 -28 19 45 c11 25 34 65 51 90 16 25 30
48 30 52 -1 12 -623 435 -645 439 -16 3 -31 -16 -77 -96z"/>
<path d="M2585 2230 c-77 -55 -145 -99 -151 -100 -7 0 -19 11 -28 25 -9 14
-21 25 -27 25 -16 0 -318 -213 -319 -225 0 -6 16 -34 36 -64 20 -29 42 -68 50
-87 12 -28 18 -33 32 -26 9 5 169 80 354 168 186 87 340 164 342 170 3 7 -21
56 -52 110 -40 69 -63 100 -77 101 -12 1 -79 -40 -160 -97z"/>
<path d="M35 1888 c-23 -106 -36 -211 -27 -220 5 -5 83 -16 173 -24 221 -20
209 -17 202 -58 -3 -20 -1 -36 6 -41 7 -4 95 -14 197 -22 147 -13 188 -13 194
-4 7 12 21 114 24 175 l1 29 -355 93 c-195 51 -367 93 -382 94 -21 0 -29 -6
-33 -22z"/>
<path d="M2758 1811 c-174 -47 -178 -47 -178 -26 0 12 -6 30 -14 40 -13 18
-19 17 -192 -30 -99 -26 -183 -52 -188 -56 -4 -4 -1 -39 8 -77 9 -39 16 -85
16 -101 0 -36 -5 -35 136 -21 142 14 633 60 645 60 14 0 11 74 -6 163 -17 87
-21 97 -38 96 -7 0 -92 -22 -189 -48z"/>
<path d="M2210 1448 c0 -24 -7 -70 -14 -103 -8 -33 -14 -61 -12 -62 1 -1 166
-45 367 -98 318 -83 409 -103 409 -92 0 1 9 54 20 117 17 100 18 116 5 126 -8
6 -85 16 -172 23 -210 17 -205 16 -197 56 4 21 1 35 -7 41 -13 8 -272 33 -351
34 l-48 0 0 -42z"/>
<path d="M385 1434 c-187 -18 -350 -33 -362 -33 -20 -1 -23 -6 -23 -45 0 -54
26 -196 39 -209 5 -5 81 10 184 37 96 25 180 46 186 46 6 0 11 -9 11 -19 0
-31 11 -51 29 -51 9 0 95 22 191 49 151 41 175 51 174 67 -2 22 -25 163 -30
182 -4 15 6 16 -399 -24z"/>
<path d="M2151 1207 c-6 -18 -27 -56 -46 -86 -19 -29 -35 -56 -35 -59 1 -12
622 -435 644 -439 17 -4 31 13 78 98 31 56 54 107 52 114 -3 7 -81 48 -173 91
l-169 78 16 33 c14 29 14 35 1 47 -17 17 -325 156 -344 156 -7 0 -18 -15 -24
-33z"/>
<path d="M473 1057 c-189 -89 -345 -167 -347 -173 -8 -20 107 -214 126 -214 9
0 85 47 167 104 l151 105 17 -30 c11 -19 25 -29 36 -27 22 3 316 209 317 221
0 5 -13 27 -29 50 -15 23 -38 61 -50 85 -12 23 -27 42 -34 42 -6 0 -166 -74
-354 -163z"/>
<path d="M1990 984 c-25 -25 -57 -53 -72 -62 -16 -9 -28 -22 -28 -28 0 -19
444 -639 458 -639 24 0 182 139 182 160 0 13 -48 68 -129 149 l-130 129 25 19
c13 11 24 28 24 38 0 16 -263 280 -279 280 -4 0 -27 -21 -51 -46z"/>
<path d="M691 736 c-166 -167 -272 -279 -270 -288 5 -19 169 -158 186 -158 7
0 60 68 119 150 59 83 113 150 120 150 6 0 17 -7 24 -15 27 -32 46 -14 153
140 59 86 107 160 107 165 0 5 -16 20 -35 33 -19 13 -53 40 -75 61 -21 20 -43
36 -47 36 -5 0 -131 -123 -282 -274z"/>
<path d="M1827 864 c-3 -3 -43 -19 -89 -35 -47 -16 -83 -34 -82 -41 1 -14 178
-659 195 -716 13 -41 23 -41 148 4 80 29 101 40 101 55 0 11 -34 92 -75 181
-74 160 -78 177 -39 178 6 0 17 7 24 15 10 12 -3 46 -71 190 -75 159 -94 187
-112 169z"/>
<path d="M1001 504 c-92 -199 -160 -359 -155 -364 14 -13 193 -80 215 -80 24
0 23 -3 80 200 34 123 49 164 60 161 60 -17 67 -14 78 25 74 286 90 348 88
349 -7 3 -196 65 -199 65 -3 0 -78 -160 -167 -356z"/>
<path d="M1396 706 c-3 -44 -17 -218 -31 -386 -14 -168 -25 -308 -25 -312 0
-5 59 -8 130 -8 l130 0 0 28 c0 32 -17 246 -25 315 l-6 47 41 0 40 0 0 43 c0
23 -7 105 -15 182 -8 77 -15 147 -15 156 0 15 -14 17 -109 17 l-108 -1 -7 -81z"/>
</g>
</svg>
