<svg version="1.0" xmlns="http://www.w3.org/2000/svg" viewBox="0 0 1031 540"
 preserveAspectRatio="xMidYMid meet">

<g transform="translate(0,540) scale(0.1,-0.1)"
fill="currentColor" stroke="none">
<path d="M3730 2700 l0 -1370 210 0 210 0 0 440 0 440 69 0 69 0 353 -440 353
-440 264 0 c210 0 262 3 255 13 -14 16 -816 1010 -859 1062 l-33 41 344 464
343 465 -226 3 c-125 1 -232 0 -238 -2 -6 -2 -136 -180 -290 -395 l-279 -391
-62 0 -63 0 0 740 0 740 -210 0 -210 0 0 -1370z"/>
<path d="M5620 2918 c0 -701 4 -1177 10 -1213 23 -143 98 -258 208 -318 90
-49 151 -57 455 -57 l277 0 0 190 0 190 -210 0 c-237 0 -267 6 -297 62 -17 31
-18 75 -21 630 l-3 598 263 2 263 3 3 188 2 187 -265 0 -265 0 0 345 0 345
-210 0 -210 0 0 -1152z"/>
<path d="M2226 3410 c-245 -39 -500 -178 -645 -350 -108 -130 -179 -272 -223
-447 -20 -75 -23 -113 -22 -263 1 -155 4 -186 27 -273 116 -436 460 -728 918
-779 241 -27 512 39 710 172 88 60 222 192 275 272 130 195 193 424 181 662
-12 253 -90 460 -244 649 -122 149 -332 279 -538 332 -112 30 -331 42 -439 25z
m299 -405 c184 -39 338 -159 419 -328 60 -126 71 -178 70 -332 -1 -112 -5
-141 -27 -210 -111 -336 -427 -508 -771 -419 -268 69 -456 333 -456 639 0 184
71 367 190 485 145 146 365 209 575 165z"/>
<path d="M7498 3404 c-404 -73 -720 -392 -809 -819 -24 -113 -26 -328 -4 -442
67 -354 297 -645 615 -776 366 -152 801 -64 1022 207 l53 65 23 -69 c31 -90
89 -157 170 -193 81 -37 144 -47 283 -47 l119 0 0 190 0 190 -65 0 c-40 0 -78
6 -96 16 -61 31 -59 8 -59 869 l0 785 -205 0 -205 0 0 -140 0 -140 -71 75
c-88 92 -185 154 -304 194 -158 53 -308 64 -467 35z m431 -417 c101 -35 157
-71 232 -147 111 -113 174 -264 185 -445 17 -272 -117 -524 -335 -635 -179
-90 -388 -89 -570 1 -145 72 -255 202 -311 369 -30 90 -38 285 -16 390 50 239
243 437 473 485 100 21 252 13 342 -18z"/>
</g>
</svg>
