<svg viewBox="0 0 20 20" fill="none" xmlns="http://www.w3.org/2000/svg">
<path d="M7.8125 9.375C8.33027 9.375 8.75 9.79473 8.75 10.3125V12.1875C8.75 12.7053 8.33027 13.125 7.8125 13.125C7.29473 13.125 6.875 12.7053 6.875 12.1875V10.3125C6.875 9.79473 7.29473 9.375 7.8125 9.375Z" fill="currentColor"/>
<path d="M13.125 10.3125C13.125 9.79473 12.7053 9.375 12.1875 9.375C11.6697 9.375 11.25 9.79473 11.25 10.3125V12.1875C11.25 12.7053 11.6697 13.125 12.1875 13.125C12.7053 13.125 13.125 12.7053 13.125 12.1875V10.3125Z" fill="currentColor"/>
<path fill-rule="evenodd" clip-rule="evenodd" d="M10.625 4.24499C11.1768 4.00387 11.5625 3.45322 11.5625 2.8125C11.5625 1.94956 10.8629 1.25 10 1.25C9.13706 1.25 8.4375 1.94956 8.4375 2.8125C8.4375 3.45322 8.82315 4.00387 9.375 4.24499V5.3125H5.625C4.0717 5.3125 2.8125 6.5717 2.8125 8.125V9.71876C2.0993 9.86353 1.5625 10.4941 1.5625 11.25C1.5625 12.0059 2.0993 12.6365 2.8125 12.7812V14.375C2.8125 15.9283 4.0717 17.1875 5.625 17.1875H14.375C15.9283 17.1875 17.1875 15.9283 17.1875 14.375V12.7812C17.9007 12.6365 18.4375 12.0059 18.4375 11.25C18.4375 10.4941 17.9007 9.86353 17.1875 9.71876V8.125C17.1875 6.5717 15.9283 5.3125 14.375 5.3125H10.625V4.24499ZM15.3125 8.125V14.375C15.3125 14.8928 14.8928 15.3125 14.375 15.3125H5.625C5.10723 15.3125 4.6875 14.8928 4.6875 14.375V8.125C4.6875 7.60723 5.10723 7.1875 5.625 7.1875H14.375C14.8928 7.1875 15.3125 7.60723 15.3125 8.125Z" fill="currentColor"/>
</svg>
