<svg viewBox="0 0 20 20" fill="none" xmlns="http://www.w3.org/2000/svg">
<path d="M5 4.6875C4.82741 4.6875 4.6875 4.82741 4.6875 5V15C4.6875 15.1726 4.82741 15.3125 5 15.3125H13.75V17.1875H5C3.79188 17.1875 2.8125 16.2081 2.8125 15V5C2.8125 3.79188 3.79188 2.8125 5 2.8125H12.5C13.7081 2.8125 14.6875 3.79188 14.6875 5V6.25H12.8125V5C12.8125 4.82741 12.6726 4.6875 12.5 4.6875H5Z" fill="currentColor"/>
<path d="M9.33709 5.58716L6.83709 8.08716C6.47097 8.45328 6.47097 9.04687 6.83709 9.41298L9.33709 11.913L10.6629 10.5872L9.76332 9.68757H13.75V7.81257H9.76332L10.6629 6.91298L9.33709 5.58716Z" fill="currentColor"/>
<path d="M18.1629 13.163C18.529 12.7969 18.529 12.2033 18.1629 11.8372L15.6629 9.33716L14.3371 10.663L15.2367 11.5626H11.25L11.25 13.4376H15.2367L14.3371 14.3372L15.6629 15.663L18.1629 13.163Z" fill="currentColor"/>
</svg>
