<svg viewBox="0 0 20 20" fill="none" xmlns="http://www.w3.org/2000/svg">
<path d="M7.68936 5.44087C6.88825 5.65138 6.65812 6.65867 7.27108 7.27163L12.7284 12.7281C13.3413 13.3411 14.3486 13.111 14.5591 12.3098L16.4997 4.91193C16.7177 4.08186 15.9177 3.28192 15.0877 3.49989L7.68936 5.44087Z" fill="currentColor"/>
<path d="M2.48517 16.41C2.18007 16.7151 2.18007 17.2098 2.48517 17.5149C2.79026 17.82 3.28492 17.82 3.59002 17.5149L8.67752 12.4274C8.98262 12.1223 8.98262 11.6276 8.67753 11.3226C8.37243 11.0175 7.87777 11.0174 7.57267 11.3225L2.48517 16.41Z" fill="currentColor"/>
<path d="M10.8743 13.5319C11.1812 13.8352 11.1841 14.3299 10.8808 14.6368L9.8554 15.6742C9.5521 15.9811 9.05745 15.984 8.75057 15.6807C8.44369 15.3774 8.44079 14.8828 8.74409 14.5759L9.7695 13.5384C10.0728 13.2315 10.5675 13.2286 10.8743 13.5319Z" fill="currentColor"/>
<path d="M5.3598 9.12253L3.82254 10.6601C3.51748 10.9652 3.51752 11.4599 3.82265 11.7649C4.12778 12.07 4.62244 12.07 4.9275 11.7648L6.46476 10.2273C6.76983 9.92216 6.76978 9.4275 6.46466 9.12243C6.15953 8.81736 5.66487 8.81741 5.3598 9.12253Z" fill="currentColor"/>
</svg>
