<svg viewBox="0 0 20 20" fill="none" xmlns="http://www.w3.org/2000/svg">
<path fill-rule="evenodd" clip-rule="evenodd" d="M15 8.4375C13.4265 8.4375 12.1 7.38032 11.6919 5.9375H7.2634L13.324 11.9981C13.8198 11.7206 14.3914 11.5625 15 11.5625C16.8985 11.5625 18.4375 13.1015 18.4375 15C18.4375 16.8985 16.8985 18.4375 15 18.4375C13.1015 18.4375 11.5625 16.8985 11.5625 15C11.5625 14.3914 11.7207 13.8197 11.9981 13.3239L5.9375 7.26325V11.6919C7.38032 12.1 8.4375 13.4265 8.4375 15C8.4375 16.8985 6.89848 18.4375 5 18.4375C3.10152 18.4375 1.5625 16.8985 1.5625 15C1.5625 13.4265 2.61968 12.1 4.0625 11.6919V6.97699C3.32345 6.62591 2.8125 5.87262 2.8125 5C2.8125 3.79188 3.79188 2.8125 5 2.8125C5.87262 2.8125 6.62591 3.32345 6.97699 4.0625H11.6919C12.1 2.61968 13.4265 1.5625 15 1.5625C16.8985 1.5625 18.4375 3.10152 18.4375 5C18.4375 6.89848 16.8985 8.4375 15 8.4375ZM15 3.4375C14.1371 3.4375 13.4375 4.13705 13.4375 5C13.4375 5.86295 14.1371 6.5625 15 6.5625C15.8629 6.5625 16.5625 5.86295 16.5625 5C16.5625 4.13705 15.8629 3.4375 15 3.4375ZM5 13.4375C4.13705 13.4375 3.4375 14.1371 3.4375 15C3.4375 15.8629 4.13705 16.5625 5 16.5625C5.86295 16.5625 6.5625 15.8629 6.5625 15C6.5625 14.1371 5.86295 13.4375 5 13.4375ZM13.4375 15C13.4375 14.1371 14.1371 13.4375 15 13.4375C15.8629 13.4375 16.5625 14.1371 16.5625 15C16.5625 15.8629 15.8629 16.5625 15 16.5625C14.1371 16.5625 13.4375 15.8629 13.4375 15Z" fill="currentColor"/>
</svg>
