<svg viewBox="0 0 20 20" fill="none" xmlns="http://www.w3.org/2000/svg">
<path d="M17.8497 5.468C16.2826 2.75962 13.3541 0.9375 10 0.9375V2.8125C12.6601 2.8125 14.9828 4.25763 16.2256 6.40565L17.8497 5.468Z" fill="currentColor"/>
<path d="M14.8722 7.18703C13.8995 5.50597 12.0819 4.375 10 4.375V6.25C11.3879 6.25 12.5997 7.00398 13.2481 8.12469L14.8722 7.18703Z" fill="currentColor"/>
<path d="M2.8125 9.99998C2.8125 8.69058 3.16264 7.46296 3.7744 6.40564L2.15033 5.46799C1.37898 6.80113 0.9375 8.349 0.9375 9.99998C0.9375 11.651 1.37898 13.1988 2.15033 14.532L3.7744 13.5943C3.16264 12.537 2.8125 11.3094 2.8125 9.99998Z" fill="currentColor"/>
<path d="M4.375 9.99998C4.375 8.97523 4.64902 8.01449 5.12779 7.18702L6.75186 8.12468C6.43268 8.67632 6.25 9.31682 6.25 9.99998C6.25 10.6831 6.43268 11.3236 6.75186 11.8753L5.12779 12.8129C4.64902 11.9855 4.375 11.0247 4.375 9.99998Z" fill="currentColor"/>
<path d="M10 12.1875C11.2081 12.1875 12.1875 11.2081 12.1875 10C12.1875 8.79188 11.2081 7.8125 10 7.8125C8.79188 7.8125 7.8125 8.79188 7.8125 10C7.8125 11.2081 8.79188 12.1875 10 12.1875Z" fill="currentColor"/>
<path d="M14.8723 12.8133C13.8996 14.4942 12.0818 15.625 10 15.625L10.0002 13.75C11.388 13.75 12.5998 12.9962 13.2482 11.8756L14.8723 12.8133Z" fill="currentColor"/>
<path d="M10.0001 19.0625L10.0001 17.1875C12.6601 17.1875 14.9828 15.7425 16.2257 13.5946L17.8498 14.5323C16.2827 17.2405 13.3541 19.0625 10.0001 19.0625Z" fill="currentColor"/>
</svg>
