<svg viewBox="0 0 20 20" fill="none" xmlns="http://www.w3.org/2000/svg">
<path fill-rule="evenodd" clip-rule="evenodd" d="M10 1.5625C7.85621 1.5625 5.87646 1.85077 4.40024 2.34284C3.66702 2.58725 3.00604 2.89893 2.5091 3.29056C2.02273 3.67387 1.5625 4.24445 1.5625 5V15C1.5625 15.6153 1.8719 16.1126 2.2412 16.4747C2.60791 16.8342 3.09323 17.1239 3.62279 17.3585C4.68662 17.83 6.11958 18.1624 7.71615 18.3246C8.23127 18.3769 8.69126 18.0017 8.74358 17.4866C8.7959 16.9715 8.42073 16.5115 7.90561 16.4592C6.42795 16.3091 5.20547 16.009 4.38242 15.6443C3.96854 15.4609 3.70255 15.2816 3.55382 15.1358C3.47121 15.0548 3.44483 15.0054 3.4375 14.9871V12.2733C3.49904 12.3027 3.56134 12.3313 3.62425 12.3592C4.68885 12.8307 6.12285 13.1631 7.7205 13.325C8.23563 13.3772 8.69555 13.0019 8.74776 12.4868C8.79997 11.9717 8.4247 11.5118 7.90957 11.4596C6.43086 11.3097 5.20734 11.0097 4.38351 10.6448C3.96924 10.4613 3.70294 10.2819 3.55401 10.136C3.47125 10.0549 3.44483 10.0054 3.4375 9.98714V7.27322C3.73686 7.41645 4.06081 7.54402 4.40024 7.65716C5.87646 8.14923 7.85621 8.4375 10 8.4375C12.1438 8.4375 14.1235 8.14923 15.5998 7.65716C15.9392 7.54402 16.2631 7.41645 16.5625 7.27322V7.8125C16.5625 8.33027 16.9822 8.75 17.5 8.75C18.0178 8.75 18.4375 8.33027 18.4375 7.8125V5C18.4375 4.24445 17.9773 3.67387 17.4909 3.29056C16.994 2.89893 16.333 2.58725 15.5998 2.34284C14.1235 1.85077 12.1438 1.5625 10 1.5625ZM3.66968 4.76321C3.51654 4.88389 3.46218 4.96427 3.44395 5C3.46218 5.03573 3.51654 5.11611 3.66968 5.23679C3.93178 5.44335 4.36914 5.67037 4.99316 5.87838C6.23141 6.29112 8.00166 6.5625 10 6.5625C11.9983 6.5625 13.7686 6.29112 15.0068 5.87838C15.6309 5.67037 16.0682 5.44335 16.3303 5.23679C16.4835 5.11611 16.5378 5.03573 16.556 5C16.5378 4.96427 16.4835 4.88389 16.3303 4.76321C16.0682 4.55665 15.6309 4.32963 15.0068 4.12162C13.7686 3.70888 11.9983 3.4375 10 3.4375C8.00166 3.4375 6.23141 3.70888 4.99316 4.12162C4.36914 4.32963 3.93178 4.55665 3.66968 4.76321Z" fill="currentColor"/>
<path d="M12.0682 10.4795C11.9077 10.1934 11.6014 10 11.25 10C10.7322 10 10.3125 10.4197 10.3125 10.9375V17.8125C10.3125 18.3303 10.7322 18.75 11.25 18.75C11.7678 18.75 12.1875 18.3303 12.1875 17.8125V14.3804L13.5669 16.7254C13.7353 17.0117 14.0427 17.1875 14.375 17.1875C14.7072 17.1875 15.0146 17.0117 15.183 16.7254L16.5625 14.3802V17.8125C16.5625 18.3303 16.9822 18.75 17.5 18.75C18.0178 18.75 18.4375 18.3303 18.4375 17.8125V10.9375C18.4375 10.4197 18.0178 10 17.5 10C17.15 10 16.8448 10.1918 16.6838 10.476L14.375 14.401L12.0682 10.4795Z" fill="currentColor"/>
</svg>
