<svg viewBox="0 0 20 20" fill="none" xmlns="http://www.w3.org/2000/svg">
<path fill-rule="evenodd" clip-rule="evenodd" d="M4.40024 2.34284C5.87646 1.85077 7.85621 1.5625 10 1.5625C12.1438 1.5625 14.1235 1.85077 15.5998 2.34284C16.333 2.58725 16.994 2.89893 17.4909 3.29056C17.9773 3.67387 18.4375 4.24445 18.4375 5V7.8125C18.4375 8.33027 18.0178 8.75 17.5 8.75C16.9822 8.75 16.5625 8.33027 16.5625 7.8125V7.27322C16.2631 7.41645 15.9392 7.54402 15.5998 7.65716C14.1235 8.14923 12.1438 8.4375 10 8.4375C7.85621 8.4375 5.87646 8.14923 4.40024 7.65716C4.06081 7.54402 3.73686 7.41645 3.4375 7.27322V9.98648C3.44612 10.0086 3.48284 10.0784 3.6164 10.1931C3.82813 10.3749 4.19046 10.5835 4.72427 10.7835C5.78391 11.1804 7.32143 11.4704 9.10609 11.5442C9.62342 11.5656 10.0255 12.0023 10.0041 12.5196C9.98268 13.037 9.54596 13.439 9.02864 13.4176C7.11128 13.3383 5.36512 13.0257 4.06658 12.5393C3.849 12.4578 3.63823 12.3693 3.4375 12.2733V14.9864C3.44612 15.0086 3.48284 15.0783 3.6164 15.193C3.82813 15.3749 4.19046 15.5835 4.72427 15.7834C5.78391 16.1803 7.32143 16.4704 9.10609 16.5442C9.62342 16.5656 10.0255 17.0023 10.0041 17.5196C9.98268 18.0369 9.54596 18.439 9.02864 18.4176C7.11128 18.3383 5.36512 18.0257 4.06658 17.5393C3.42131 17.2976 2.83592 16.9944 2.39471 16.6154C1.95724 16.2396 1.5625 15.6978 1.5625 15V5C1.5625 4.24445 2.02273 3.67387 2.5091 3.29056C3.00604 2.89893 3.66702 2.58725 4.40024 2.34284ZM3.44395 5C3.46218 4.96427 3.51654 4.88389 3.66968 4.76321C3.93178 4.55665 4.36914 4.32963 4.99316 4.12162C6.23141 3.70888 8.00166 3.4375 10 3.4375C11.9983 3.4375 13.7686 3.70888 15.0068 4.12162C15.6309 4.32963 16.0682 4.55665 16.3303 4.76321C16.4835 4.88389 16.5378 4.96427 16.556 5C16.5378 5.03573 16.4835 5.11611 16.3303 5.23679C16.0682 5.44335 15.6309 5.67037 15.0068 5.87838C13.7686 6.29112 11.9983 6.5625 10 6.5625C8.00166 6.5625 6.23141 6.29112 4.99316 5.87838C4.36914 5.67037 3.93178 5.44335 3.66968 5.23679C3.51654 5.11611 3.46218 5.03573 3.44395 5Z" fill="currentColor"/>
<path fill-rule="evenodd" clip-rule="evenodd" d="M15.625 10H13.125C12.6072 10 12.1875 10.4197 12.1875 10.9375V17.8125C12.1875 18.3303 12.6072 18.75 13.125 18.75C13.6428 18.75 14.0625 18.3303 14.0625 17.8125V15.625H15.625C16.0875 15.625 16.7604 15.494 17.3447 15.0733C17.9767 14.6183 18.4375 13.8681 18.4375 12.8125C18.4375 11.7569 17.9767 11.0067 17.3447 10.5517C16.7604 10.131 16.0875 10 15.625 10ZM15.625 13.75H14.0625V11.875H15.625C15.7875 11.875 16.0521 11.9315 16.2491 12.0733C16.3983 12.1808 16.5625 12.368 16.5625 12.8125C16.5625 13.257 16.3983 13.4442 16.2491 13.5517C16.0521 13.6935 15.7875 13.75 15.625 13.75Z" fill="currentColor"/>
</svg>
