<svg viewBox="0 0 20 20" fill="none" xmlns="http://www.w3.org/2000/svg">
<path fill-rule="evenodd" clip-rule="evenodd" d="M9.15627 9.0625C9.59058 6.9229 11.4822 5.3125 13.75 5.3125C16.3388 5.3125 18.4375 7.41117 18.4375 10C18.4375 12.5888 16.3388 14.6875 13.75 14.6875C11.4822 14.6875 9.59058 13.0771 9.15627 10.9375H5.72699C5.37591 11.6765 4.62262 12.1875 3.75 12.1875C2.54188 12.1875 1.5625 11.2081 1.5625 10C1.5625 8.79188 2.54188 7.8125 3.75 7.8125C4.62262 7.8125 5.37591 8.32345 5.72699 9.0625H9.15627ZM13.75 7.1875C12.1967 7.1875 10.9375 8.4467 10.9375 10C10.9375 11.5533 12.1967 12.8125 13.75 12.8125C15.3033 12.8125 16.5625 11.5533 16.5625 10C16.5625 8.4467 15.3033 7.1875 13.75 7.1875Z" fill="currentColor"/>
</svg>
