<svg viewBox="0 0 20 20" fill="none" xmlns="http://www.w3.org/2000/svg">
<path fill-rule="evenodd" clip-rule="evenodd" d="M15 9.6875C13.4265 9.6875 12.1 8.63032 11.6919 7.1875H5.72699C5.37591 7.92655 4.62262 8.4375 3.75 8.4375C2.54188 8.4375 1.5625 7.45812 1.5625 6.25C1.5625 5.04188 2.54188 4.0625 3.75 4.0625C4.62262 4.0625 5.37591 4.57345 5.72699 5.3125H11.6919C12.1 3.86968 13.4265 2.8125 15 2.8125C16.8985 2.8125 18.4375 4.35152 18.4375 6.25C18.4375 8.14848 16.8985 9.6875 15 9.6875ZM15 4.6875C14.1371 4.6875 13.4375 5.38705 13.4375 6.25C13.4375 7.11295 14.1371 7.8125 15 7.8125C15.8629 7.8125 16.5625 7.11295 16.5625 6.25C16.5625 5.38705 15.8629 4.6875 15 4.6875Z" fill="currentColor"/>
<path d="M14.0625 14.9163C14.4792 14.6757 14.4792 14.0743 14.0625 13.8337L8.4375 10.5861C8.02083 10.3456 7.5 10.6463 7.5 11.1274L7.5 17.6226C7.5 18.1037 8.02083 18.4044 8.4375 18.1639L14.0625 14.9163Z" fill="currentColor"/>
</svg>
