<svg viewBox="0 0 20 20" fill="none" xmlns="http://www.w3.org/2000/svg">
<path d="M3.95833 2.8125C3.51919 2.8125 3.25005 3.08035 3.14092 3.21883C3.02346 3.36787 2.95868 3.52545 2.92163 3.63659C2.84426 3.86869 2.8125 4.12969 2.8125 4.375V15.625C2.8125 15.8703 2.84426 16.1313 2.92163 16.3634C2.95868 16.4746 3.02346 16.6321 3.14092 16.7812C3.25005 16.9196 3.51919 17.1875 3.95833 17.1875H5.9375V15.3125H4.6875L4.6875 4.6875L5.9375 4.6875V2.8125H3.95833Z" fill="currentColor"/>
<path d="M16.0417 2.8125C16.4808 2.8125 16.75 3.08035 16.8591 3.21883C16.9765 3.36787 17.0413 3.52545 17.0784 3.63659C17.1557 3.86869 17.1875 4.12969 17.1875 4.375V15.625C17.1875 15.8703 17.1557 16.1313 17.0784 16.3634C17.0413 16.4746 16.9765 16.6321 16.8591 16.7812C16.75 16.9196 16.4808 17.1875 16.0417 17.1875H14.0625V15.3125H15.3125V4.6875L14.0625 4.6875V2.8125H16.0417Z" fill="currentColor"/>
<path d="M10 8.30994L11.72 5.72998L13.2801 6.77004L11.1267 10L13.28 13.23L11.7199 14.27L10 11.6901L8.28007 14.27L6.71997 13.23L8.87327 10L6.71993 6.77004L8.28003 5.72998L10 8.30994Z" fill="currentColor"/>
</svg>
