<svg viewBox="0 0 20 20" fill="none" xmlns="http://www.w3.org/2000/svg">
<path d="M7.341 5.62622C7.341 4.1577 8.53148 2.96722 10 2.96722C11.4685 2.96722 12.659 4.1577 12.659 5.62622C12.659 5.94801 12.6022 6.25479 12.4987 6.5382L13.9664 7.07407C14.1317 6.62146 14.2215 6.13346 14.2215 5.62622C14.2215 3.29475 12.3315 1.40472 10 1.40472C7.66853 1.40472 5.7785 3.29475 5.7785 5.62622C5.7785 6.91431 6.35567 8.06696 7.26342 8.84057L4.99304 12.8137C4.1333 12.8175 3.4375 13.5156 3.4375 14.3762C3.4375 15.2392 4.13705 15.9387 5 15.9387C5.86294 15.9387 6.5625 15.2392 6.5625 14.3762C6.5625 14.089 6.48502 13.8199 6.34982 13.5887L9.35843 8.32362L8.68111 7.93575C7.87876 7.47627 7.341 6.61357 7.341 5.62622Z" fill="currentColor"/>
<path d="M11.3498 6.41374C11.485 6.18251 11.5625 5.91341 11.5625 5.62622C11.5625 4.76328 10.8629 4.06372 10 4.06372C9.13706 4.06372 8.4375 4.76328 8.4375 5.62622C8.4375 6.48685 9.1333 7.18496 9.99304 7.18871L13.0039 12.4577L13.6825 12.0691C14.0701 11.8471 14.519 11.72 15 11.72C16.467 11.72 17.6562 12.9092 17.6562 14.3762C17.6562 15.8432 16.467 17.0325 15 17.0325C14.1831 17.0325 13.4528 16.6647 12.9644 16.0828L11.7676 17.0874C12.5403 18.0078 13.7019 18.595 15 18.595C17.33 18.595 19.2188 16.7062 19.2188 14.3762C19.2188 12.0463 17.33 10.1575 15 10.1575C14.5178 10.1575 14.0536 10.2387 13.621 10.3882L11.3498 6.41374Z" fill="currentColor"/>
<path d="M16.5625 14.3762C16.5625 15.2392 15.8629 15.9387 15 15.9387C14.4217 15.9387 13.9167 15.6245 13.6465 15.1575H9.14655C8.78018 17.1142 7.06302 18.595 5 18.595C2.67005 18.595 0.78125 16.7062 0.78125 14.3762C0.78125 12.2937 2.28948 10.5649 4.27316 10.22L4.54084 11.7594C3.29276 11.9764 2.34375 13.0663 2.34375 14.3762C2.34375 15.8432 3.53299 17.0325 5 17.0325C6.46701 17.0325 7.65625 15.8432 7.65625 14.3762V13.595H13.6465C13.9167 13.1279 14.4217 12.8137 15 12.8137C15.8629 12.8137 16.5625 13.5133 16.5625 14.3762Z" fill="currentColor"/>
</svg>
