<svg viewBox="0 0 20 20" fill="none" xmlns="http://www.w3.org/2000/svg">
<path fill-rule="evenodd" clip-rule="evenodd" d="M4.40024 2.34284C5.87646 1.85077 7.85621 1.5625 10 1.5625C12.1438 1.5625 14.1235 1.85077 15.5998 2.34284C16.333 2.58725 16.994 2.89893 17.4909 3.29056C17.9773 3.67387 18.4375 4.24445 18.4375 5V15C18.4375 15 18.4375 15 18.4375 15C18.4375 15.7555 17.9773 16.3261 17.4909 16.7094C16.994 17.101 16.333 17.4127 15.5998 17.6571C14.1235 18.1492 12.1438 18.4375 10 18.4375C7.85621 18.4375 5.87646 18.1492 4.40024 17.6571C3.66702 17.4127 3.00604 17.101 2.5091 16.7094C2.02274 16.3261 1.56251 15.7555 1.5625 15V5C1.5625 4.24445 2.02273 3.67387 2.5091 3.29056C3.00604 2.89893 3.66702 2.58725 4.40024 2.34284ZM3.44395 5C3.46218 4.96427 3.51654 4.88389 3.66968 4.76321C3.93178 4.55665 4.36914 4.32963 4.99316 4.12162C6.23141 3.70888 8.00166 3.4375 10 3.4375C11.9983 3.4375 13.7686 3.70888 15.0068 4.12162C15.6309 4.32963 16.0682 4.55665 16.3303 4.76321C16.4835 4.88389 16.5378 4.96427 16.556 5C16.5378 5.03573 16.4835 5.11611 16.3303 5.23679C16.0682 5.44335 15.6309 5.67037 15.0068 5.87838C13.7686 6.29112 11.9983 6.5625 10 6.5625C8.00166 6.5625 6.23141 6.29112 4.99316 5.87838C4.36914 5.67037 3.93178 5.44335 3.66968 5.23679C3.51654 5.11611 3.46218 5.03573 3.44395 5ZM16.5625 14.9857V12.2732C16.2631 12.4164 15.9392 12.544 15.5998 12.6571C14.1235 13.1492 12.1438 13.4375 10 13.4375C7.85621 13.4375 5.87646 13.1492 4.40024 12.6571C4.06081 12.544 3.73686 12.4164 3.4375 12.2732V14.9857C3.44663 15.0097 3.49067 15.0957 3.66968 15.2368C3.93178 15.4433 4.36914 15.6703 4.99316 15.8783C6.23141 16.2911 8.00166 16.5625 10 16.5625C11.9983 16.5625 13.7686 16.2911 15.0068 15.8783C15.6309 15.6703 16.0682 15.4433 16.3303 15.2368C16.5093 15.0957 16.5534 15.0097 16.5625 14.9857ZM16.5625 9.9857V7.27322C16.2631 7.41645 15.9392 7.54402 15.5998 7.65716C14.1235 8.14923 12.1438 8.4375 10 8.4375C7.85621 8.4375 5.87646 8.14923 4.40024 7.65716C4.06081 7.54402 3.73686 7.41645 3.4375 7.27322V9.9857C3.44663 10.0097 3.49067 10.0957 3.66968 10.2368C3.93178 10.4433 4.36914 10.6703 4.99316 10.8783C6.23141 11.2911 8.00166 11.5625 10 11.5625C11.9983 11.5625 13.7686 11.2911 15.0068 10.8783C15.6309 10.6703 16.0682 10.4433 16.3303 10.2368C16.5093 10.0957 16.5534 10.0097 16.5625 9.9857Z" fill="currentColor"/>
</svg>
