<svg viewBox="0 0 20 20" fill="none" xmlns="http://www.w3.org/2000/svg">
<path fill-rule="evenodd" clip-rule="evenodd" d="M6.25 1.5625C3.66117 1.5625 1.5625 3.66117 1.5625 6.25C1.5625 8.83883 3.66117 10.9375 6.25 10.9375C8.83883 10.9375 10.9375 8.83883 10.9375 6.25C10.9375 3.66117 8.83883 1.5625 6.25 1.5625ZM5.3125 7.1875V3.125H7.1875V5.3125H8.75V7.1875H5.3125Z" fill="currentColor"/>
<path d="M18.4375 3.75C18.4375 4.95812 17.4581 5.9375 16.25 5.9375C15.3774 5.9375 14.6241 5.42655 14.273 4.6875H12.6256C12.4616 4.01606 12.1943 3.38513 11.8415 2.8125H14.273C14.6241 2.07345 15.3774 1.5625 16.25 1.5625C17.4581 1.5625 18.4375 2.54188 18.4375 3.75Z" fill="currentColor"/>
<path d="M18.4375 10C18.4375 11.2081 17.4581 12.1875 16.25 12.1875C15.3774 12.1875 14.6241 11.6765 14.273 10.9375H10.8431C11.3923 10.3993 11.8474 9.76525 12.1812 9.0625H14.273C14.6241 8.32345 15.3774 7.8125 16.25 7.8125C17.4581 7.8125 18.4375 8.79188 18.4375 10Z" fill="currentColor"/>
<path d="M16.25 18.4375C17.4581 18.4375 18.4375 17.4581 18.4375 16.25C18.4375 15.0419 17.4581 14.0625 16.25 14.0625C15.3774 14.0625 14.6241 14.5735 14.273 15.3125H12.5003C10.5151 15.3125 8.78421 14.2236 7.87234 12.6105C7.35356 12.7424 6.8101 12.8125 6.25028 12.8125C6.12585 12.8125 6.00223 12.809 5.87952 12.8022C6.9717 15.3795 9.52485 17.1875 12.5003 17.1875H14.273C14.6241 17.9265 15.3774 18.4375 16.25 18.4375Z" fill="currentColor"/>
</svg>
