<svg viewBox="0 0 24 39" fill="none" xmlns="http://www.w3.org/2000/svg">
  <g clip-path="url(#clip0_834_11388)">
    <path fill-rule="evenodd" clip-rule="evenodd" d="M24.0001 18.1734L11.9933 12.0935V24.4494L24.0001 18.1734Z"
      fill="#0052FF" />
    <path fill-rule="evenodd" clip-rule="evenodd" d="M13.5223 23.6495L11.9933 14.4658V24.4494L13.5223 23.6495Z"
      fill="#003EBF" />
    <path fill-rule="evenodd" clip-rule="evenodd" d="M22.4597 17.3872L11.9933 12.0935V13.4426L22.4597 17.3872Z"
      fill="#002980" />
    <path fill-rule="evenodd" clip-rule="evenodd"
      d="M0.721669 38.8721L11.7609 33.4622C11.912 33.3687 11.9977 33.3459 12.0023 33.077C12.0023 33.052 12.0023 12.0935 12.0023 12.0935C7.33396 14.4498 0.773539 17.7587 0.205225 18.0618C0.0248074 18.1643 0 18.2486 0 18.3808V38.3297C0 38.781 0.0248074 39.2276 0.721669 38.8721Z"
      fill="url(#paint0_linear_834_11388)" />
    <path fill-rule="evenodd" clip-rule="evenodd"
      d="M24 6.28512V18.1692C24 18.1692 1.59898 6.83659 0.823185 6.44008C0.306741 6.16662 0.306741 5.90911 0.823185 5.61514C1.29904 5.34623 10.3898 0.768052 11.7835 0.0616132C11.8421 0.0238346 11.9096 0.0026354 11.979 0.000230222C12.0484 -0.00217496 12.1172 0.0143021 12.1782 0.0479402L23.7745 5.92506C23.8474 5.95171 23.9094 6.00241 23.9503 6.06897C23.9912 6.13553 24.0087 6.21409 24 6.29195V6.28512Z"
      fill="url(#paint1_linear_834_11388)" />
  </g>
  <defs>
    <linearGradient id="paint0_linear_834_11388" x1="1.54392" y1="17.1906" x2="20.2059" y2="24.1276"
      gradientUnits="userSpaceOnUse">
      <stop stop-color="#22D7FF" />
      <stop offset="1" stop-color="#0052FF" />
    </linearGradient>
    <linearGradient id="paint1_linear_834_11388" x1="7.8324" y1="2.45013" x2="18.1882" y2="17.8009"
      gradientUnits="userSpaceOnUse">
      <stop stop-color="#22D7FF" />
      <stop offset="1" stop-color="#0052FF" />
    </linearGradient>
    <clipPath id="clip0_834_11388">
      <rect width="24" height="39" fill="white" />
    </clipPath>
  </defs>
</svg>