<svg width="24" height="37" viewBox="0 0 24 37" fill="none" xmlns="http://www.w3.org/2000/svg">
<path fill-rule="evenodd" clip-rule="evenodd" d="M0.199219 6.27374L11.9046 12.3473V24.274L23.505 18.255L23.6106 18.3098V6.16271L23.5033 6.2184L11.9046 0.200195L0.199219 6.27374Z" fill="#2D6DF6"/>
<path fill-rule="evenodd" clip-rule="evenodd" d="M0.199219 6.27374L11.9046 12.3473V24.274L23.505 18.255L23.6106 18.3098V6.16271L23.5033 6.2184L11.9046 0.200195L0.199219 6.27374Z" fill="url(#paint0_linear_2038_5737)"/>
<path fill-rule="evenodd" clip-rule="evenodd" d="M11.7981 24.108L0.199516 18.0898V30.1261L0.199219 30.1263L0.199516 30.1264V30.2369L0.305998 30.1817L11.9046 36.1998V24.1635L11.9049 24.1634L11.9046 24.1632V24.0527L11.7981 24.108Z" fill="#C7EBFF"/>
<defs>
<linearGradient id="paint0_linear_2038_5737" x1="11.9049" y1="0.200195" x2="11.9049" y2="24.2741" gradientUnits="userSpaceOnUse">
<stop stop-color="#1C44D2"/>
<stop offset="0.369792" stop-color="#2D6DF6"/>
<stop offset="1" stop-color="#89D5FF"/>
</linearGradient>
</defs>
</svg>
