<svg viewBox="0 0 76 76" fill="none" xmlns="http://www.w3.org/2000/svg">
  <path fill-rule="evenodd" clip-rule="evenodd"
    d="M15.8894 15.0703L37.9998 26.5427L38.0002 26.5425V49.4777L60.1037 38.0089L60.1106 38.0124V38.0053L60.1107 38.0053L60.1106 38.0052V15.0677L60.1079 15.0691L37.9998 3.5979L15.8894 15.0703Z"
    fill="currentColor" />
  <path fill-rule="evenodd" clip-rule="evenodd"
    d="M15.8894 15.0703L37.9998 26.5427L38.0002 26.5425V49.4777L60.1037 38.0089L60.1106 38.0124V38.0053L60.1107 38.0053L60.1106 38.0052V15.0677L60.1079 15.0691L37.9998 3.5979L15.8894 15.0703Z"
    fill="currentColor" />
  <path fill-rule="evenodd" clip-rule="evenodd"
    d="M37.9871 49.4642L15.8898 37.9987V60.9298L15.8898 60.9298L15.8898 60.9299V60.9434L15.9029 60.9367L38.0002 72.4022V49.4711L38.0003 49.4711L38.0002 49.471V49.4574L37.9871 49.4642Z"
    fill="currentColor" />
</svg>