<svg viewBox="0 0 24 24" fill="none" xmlns="http://www.w3.org/2000/svg">
<path fill-rule="evenodd" clip-rule="evenodd" d="M18.1431 11.646L12.3574 8.8418V14.526L18.1431 11.646Z" fill="currentColor"/>
<mask id="mask0_124_3824" style="mask-type:alpha" maskUnits="userSpaceOnUse" x="4" y="6" width="8" height="18">
<path d="M4 6.97852H11.024V23.9998H4V6.97852Z" fill="white"/>
</mask>
<g mask="url(#mask0_124_3824)">
<path fill-rule="evenodd" clip-rule="evenodd" d="M4.42273 23.9187C4.43742 23.909 10.8773 20.4992 10.8832 20.496C10.9712 20.4383 11.0211 20.4223 11.024 20.2525C11.024 20.2364 11.0211 6.97852 11.0211 6.97852C8.29254 8.46875 4.45205 10.5614 4.12051 10.7537C4.01493 10.8178 4.00024 10.8723 4.00024 10.9556V23.5758C3.9973 23.861 4.01493 24.143 4.42273 23.9187Z" fill="currentColor"/>
</g>
<path fill-rule="evenodd" clip-rule="evenodd" d="M19.4283 3.71347V10.7368C19.4283 10.7368 5.37318 4.04575 4.8856 3.80627C4.56157 3.64463 4.56157 3.49196 4.8856 3.31828C5.18444 3.15963 10.8876 0.453268 11.7622 0.0371652C11.8754 -0.0107634 11.91 -0.0107634 12.0107 0.0281231L19.2868 3.4979C19.3906 3.54583 19.422 3.5937 19.4283 3.71347Z" fill="currentColor"/>
</svg>
