<svg viewBox="0 0 20 20" fill="none" xmlns="http://www.w3.org/2000/svg">
<path d="M10 12.5C11.3807 12.5 12.5 11.3807 12.5 10C12.5 8.61929 11.3807 7.5 10 7.5C8.61929 7.5 7.5 8.61929 7.5 10C7.5 11.3807 8.61929 12.5 10 12.5Z" fill="currentColor"/>
<path fill-rule="evenodd" clip-rule="evenodd" d="M3.7747 9.0625C4.18174 6.33657 6.33657 4.18174 9.0625 3.7747V1.875H10.9375V3.7747C13.6634 4.18174 15.8183 6.33657 16.2253 9.0625H18.125V10.9375H16.2253C15.8183 13.6634 13.6634 15.8183 10.9375 16.2253V18.125H9.0625V16.2253C6.33657 15.8183 4.18174 13.6634 3.7747 10.9375H1.875V9.0625H3.7747ZM5.58036 10C5.58036 7.5591 7.5591 5.58036 10 5.58036C12.4409 5.58036 14.4196 7.5591 14.4196 10C14.4196 12.4409 12.4409 14.4196 10 14.4196C7.5591 14.4196 5.58036 12.4409 5.58036 10Z" fill="currentColor"/>
</svg>
