<svg viewBox="0 0 20 20" fill="none" xmlns="http://www.w3.org/2000/svg">
<path fill-rule="evenodd" clip-rule="evenodd" d="M3.021 8.16667C3.021 4.31218 6.14568 1.1875 10.0002 1.1875C13.8546 1.1875 16.9793 4.31218 16.9793 8.16667C16.9793 8.6687 16.9421 9.1675 16.8274 9.67973L16.6227 10.5946L14.793 10.1851L14.9977 9.27027C15.0739 8.92959 15.1043 8.57511 15.1043 8.16667C15.1043 5.34771 12.8191 3.0625 10.0002 3.0625C7.18121 3.0625 4.896 5.34771 4.896 8.16667C4.896 10.9856 7.18121 13.2708 10.0002 13.2708L11.4859 13.271L9.48211 11.2672L10.8079 9.94135L14.4124 13.5458C14.4257 13.5591 14.4385 13.5727 14.4509 13.5866L15.0742 14.2099L14.4176 14.8665C14.4143 14.8699 14.4109 14.8732 14.4075 14.8765L10.8079 18.4761L9.48211 17.1503L11.4864 15.146L10.0002 15.1458C10.0001 15.1458 10.0002 15.1458 10.0002 15.1458C6.14572 15.1458 3.021 12.0211 3.021 8.16667Z" fill="currentColor"/>
</svg>
