<svg viewBox="0 0 20 20" fill="none" xmlns="http://www.w3.org/2000/svg">
<path fill-rule="evenodd" clip-rule="evenodd" d="M8.75 4.6875C6.50634 4.6875 4.6875 6.50634 4.6875 8.75C4.6875 10.9937 6.50634 12.8125 8.75 12.8125C9.88339 12.8125 10.9069 12.3496 11.6449 11.6002C12.3679 10.8659 12.8125 9.86079 12.8125 8.75C12.8125 6.50634 10.9937 4.6875 8.75 4.6875ZM2.8125 8.75C2.8125 5.47081 5.47081 2.8125 8.75 2.8125C12.0292 2.8125 14.6875 5.47081 14.6875 8.75C14.6875 10.0367 14.2774 11.2288 13.5819 12.2012L17.5928 16.2121L16.267 17.5379L12.2648 13.5357C11.2811 14.2592 10.065 14.6875 8.75 14.6875C5.47081 14.6875 2.8125 12.0292 2.8125 8.75Z" fill="currentColor"/>
</svg>
