<svg viewBox="0 0 40 40" fill="none" xmlns="http://www.w3.org/2000/svg">
<path d="M15 23.3333C8.55668 23.3333 5 28.5567 5 35H16.6667M23.3333 11.6667C23.3333 15.3486 20.3486 18.3333 16.6667 18.3333C12.9848 18.3333 10 15.3486 10 11.6667C10 7.98477 12.9848 5 16.6667 5C20.3486 5 23.3333 7.98477 23.3333 11.6667Z" stroke="currentColor" stroke-width="3" stroke-linecap="round" stroke-linejoin="round"/>
<path d="M25.8258 19.2287C26.6151 18.0206 28.3851 18.0206 29.1744 19.2287L30.2669 20.9009C30.615 21.4336 31.1957 21.7689 31.8311 21.804L33.8255 21.914C35.2664 21.9935 36.1514 23.5264 35.4998 24.814L34.5979 26.5963C34.3106 27.1641 34.3106 27.8346 34.5979 28.4024L35.4998 30.1847C36.1514 31.4723 35.2664 33.0052 33.8255 33.0847L31.8311 33.1947C31.1957 33.2298 30.615 33.5651 30.2669 34.0978L29.1744 35.77C28.3851 36.9781 26.6151 36.9781 25.8258 35.77L24.7332 34.0978C24.3852 33.5651 23.8044 33.2298 23.1691 33.1947L21.1747 33.0847C19.7338 33.0052 18.8487 31.4723 19.5003 30.1847L20.4023 28.4024C20.6896 27.8346 20.6896 27.1641 20.4023 26.5963L19.5003 24.814C18.8487 23.5264 19.7337 21.9935 21.1747 21.914L23.1691 21.804C23.8044 21.7689 24.3852 21.4336 24.7332 20.9009L25.8258 19.2287Z"  stroke="currentColor" stroke-width="3"/>
<circle cx="27.5" cy="27.5" r="2.5" fill="currentColor" />
</svg>
