<svg viewBox="0 0 20 20" fill="none" xmlns="http://www.w3.org/2000/svg">
<path fill-rule="evenodd" clip-rule="evenodd" d="M8.49989 16.1985C8.49989 15.9704 8.34468 15.7733 8.1279 15.7022C7.83892 15.6074 7.55962 15.4912 7.29186 15.3556C7.08832 15.2525 6.83917 15.2821 6.67783 15.4434L6.11094 16.0103C5.91568 16.2056 5.5991 16.2056 5.40383 16.0103L3.98962 14.5961C3.79436 14.4009 3.79436 14.0843 3.98962 13.889L4.55634 13.3223C4.71769 13.1609 4.74731 12.9118 4.64417 12.7082C4.50845 12.4404 4.39224 12.161 4.29739 11.8719C4.22627 11.6552 4.02917 11.5 3.80103 11.5H3C2.72386 11.5 2.5 11.2761 2.5 11V8.99997C2.5 8.72382 2.72386 8.49997 3 8.49997H3.80095C4.02909 8.49997 4.2262 8.34477 4.29732 8.12799C4.39216 7.8389 4.50837 7.55949 4.64409 7.29164C4.74723 7.08809 4.7176 6.83892 4.55625 6.67757L3.98957 6.11089C3.79431 5.91563 3.79431 5.59905 3.98957 5.40378L5.40379 3.98957C5.59905 3.79431 5.91563 3.79431 6.11089 3.98957L6.67766 4.55634C6.83901 4.71768 7.08816 4.74731 7.29171 4.64419C7.55951 4.50852 7.83886 4.39235 8.1279 4.29753C8.34468 4.22642 8.49989 4.02931 8.49989 3.80116V2.99994C8.49989 2.7238 8.72375 2.49994 8.99989 2.49994H10.9999C11.276 2.49994 11.4999 2.7238 11.4999 2.99994V3.80137C11.4999 4.0295 11.6551 4.2266 11.8718 4.29773C12.1608 4.39257 12.4402 4.50876 12.7079 4.64445C12.9115 4.74759 13.1607 4.71797 13.322 4.55661L13.8891 3.98951C14.0844 3.79425 14.401 3.79425 14.5962 3.98951L16.0104 5.40372C16.2057 5.59899 16.2057 5.91557 16.0104 6.11083L15.4432 6.67811C15.2818 6.83945 15.2522 7.0886 15.3553 7.29214C15.4909 7.55984 15.607 7.83908 15.7018 8.12799C15.7729 8.34477 15.97 8.49997 16.1982 8.49997H17C17.2761 8.49997 17.5 8.72382 17.5 8.99997V11C17.5 11.2761 17.2761 11.5 17 11.5H16.1981C15.97 11.5 15.7729 11.6552 15.7017 11.8719C15.607 12.1608 15.4908 12.44 15.3552 12.7077C15.2521 12.9112 15.2817 13.1604 15.4431 13.3217L16.0104 13.8891C16.2057 14.0843 16.2057 14.4009 16.0104 14.5962L14.5962 16.0104C14.4009 16.2056 14.0843 16.2056 13.8891 16.0104L13.3218 15.4432C13.1605 15.2818 12.9113 15.2522 12.7078 15.3553C12.44 15.491 12.1608 15.6071 11.8718 15.702C11.6551 15.7731 11.4999 15.9702 11.4999 16.1983V16.9999C11.4999 17.2761 11.276 17.4999 10.9999 17.4999H8.99989C8.72375 17.4999 8.49989 17.2761 8.49989 16.9999V16.1985ZM10 13.125C11.7259 13.125 13.125 11.7259 13.125 10C13.125 8.27412 11.7259 6.87501 10 6.87501C8.27411 6.87501 6.875 8.27412 6.875 10C6.875 11.7259 8.27411 13.125 10 13.125Z" fill="currentColor"/>
</svg>
