<svg viewBox="0 0 20 20" fill="none" xmlns="http://www.w3.org/2000/svg">
<path fill-rule="evenodd" clip-rule="evenodd" d="M3.17855 4.96949C2.81383 4.99927 2.5265 5.31374 2.5569 5.6784C2.98649 10.8326 3.39964 15.0098 9.78373 17.4198C9.92108 17.4716 10.0794 17.4716 10.2167 17.4198C16.6008 15.0098 17.014 10.8326 17.4436 5.6784C17.474 5.31374 17.1866 4.99927 16.8219 4.96949C15.0948 4.82849 12.2501 4.18985 10.4345 2.8519C10.1781 2.66297 9.82233 2.66297 9.56596 2.8519C7.75036 4.18985 4.90568 4.82849 3.17855 4.96949ZM10.9377 11.25V6.25H9.06273V11.25H10.9377ZM10.9377 12.5H9.06273V14.375H10.9377V12.5Z" fill="currentColor"/>
</svg>
