<svg viewBox="0 0 20 20" fill="none" xmlns="http://www.w3.org/2000/svg">
<path fill-rule="evenodd" clip-rule="evenodd" d="M10 17.5C14.1421 17.5 17.5 14.1421 17.5 10C17.5 5.85786 14.1421 2.5 10 2.5C5.85786 2.5 2.5 5.85786 2.5 10C2.5 14.1421 5.85786 17.5 10 17.5ZM7.81861 5.82708L7.22595 6.34898L8.33608 7.62273L8.85667 7.16886C9.0636 6.95602 9.6504 6.57024 10.3421 6.72987C11.2068 6.92941 11.4285 7.43572 11.4285 7.92349C11.4285 8.3137 10.9881 8.66616 10.7678 8.78736C10.6289 8.83762 10.2384 9.04633 9.78786 9.47911C9.22471 10.0201 9.1715 10.6808 9.1715 10.9239V11.8913H10.8659V10.9239C10.8659 10.7518 11.1383 10.5145 11.4771 10.3368C11.7481 10.1946 12.0528 9.97026 12.1713 9.87585C12.5748 9.54448 13.3231 8.57963 13.0876 7.37117C12.7933 5.86058 11.4232 5.00444 10.0212 5.00002C8.89955 4.99648 8.08545 5.54992 7.81861 5.82708ZM9.16757 15V13.3016H10.8659V15H9.16757Z" fill="currentColor"/>
</svg>
