<svg viewBox="0 0 20 20" fill="none" xmlns="http://www.w3.org/2000/svg">
<path d="M3.67151 5.62507L1.68994 3.14811L3.31024 1.85187L5.00016 3.96426L6.69007 1.85187L8.31037 3.14811L6.3288 5.62507L8.31024 8.10187L6.68994 9.39811L5.00016 7.28588L3.31037 9.39811L1.69007 8.10187L3.67151 5.62507Z" fill="currentColor"/>
<path d="M13.6715 5.62507L11.6899 3.14811L13.3102 1.85187L15.0002 3.96426L16.6901 1.85187L18.3104 3.14811L16.3288 5.62507L18.3102 8.10187L16.6899 9.39811L15.0002 7.28588L13.3104 9.39811L11.6901 8.10187L13.6715 5.62507Z" fill="currentColor"/>
<path fill-rule="evenodd" clip-rule="evenodd" d="M6.40044 15.3675C6.31746 15.2845 6.18291 15.2845 6.09992 15.3675L3.23381 18.2336L1.76656 16.7664L4.63268 13.9002C5.526 13.0069 6.97436 13.0069 7.86769 13.9002L9.84992 15.8825C9.93291 15.9655 10.0675 15.9655 10.1504 15.8825L12.1327 13.9002C13.026 13.0069 14.4744 13.0069 15.3677 13.9002L18.2338 16.7664L16.7666 18.2336L13.9004 15.3675C13.8175 15.2845 13.6829 15.2845 13.5999 15.3675L11.6177 17.3497C10.7244 18.243 9.276 18.243 8.38268 17.3497L6.40044 15.3675Z" fill="currentColor"/>
</svg>
