<svg viewBox="0 0 20 20" fill="none" xmlns="http://www.w3.org/2000/svg">
<path fill-rule="evenodd" clip-rule="evenodd" d="M3.021 9.16667C3.021 5.31218 6.14568 2.1875 10.0002 2.1875C13.8546 2.1875 16.9793 5.31218 16.9793 9.16667C16.9793 9.6687 16.9421 10.1675 16.8274 10.6797L16.6227 11.5946L14.793 11.1851L14.9977 10.2703C15.0739 9.92959 15.1043 9.57511 15.1043 9.16667C15.1043 6.34771 12.8191 4.0625 10.0002 4.0625C7.18121 4.0625 4.896 6.34771 4.896 9.16667C4.896 11.9856 7.18121 14.2708 10.0002 14.2708L11.4859 14.271L9.48211 12.2672L10.8079 10.9414L14.4124 14.5458C14.4257 14.5591 14.4385 14.5727 14.4509 14.5866L15.0741 15.2099L14.4176 15.8665C14.4143 15.8699 14.4109 15.8732 14.4075 15.8765L10.8079 19.4761L9.48211 18.1503L11.4864 16.146L10.0002 16.1458C10.0001 16.1458 10.0002 16.1458 10.0002 16.1458C6.14572 16.1458 3.021 13.0211 3.021 9.16667Z" fill="currentColor"/>
</svg>
