<svg viewBox="0 0 20 20" fill="none" xmlns="http://www.w3.org/2000/svg">
<path d="M3.33317 2.5C2.4127 2.5 1.6665 3.24619 1.6665 4.16667V5C1.6665 5.45536 1.78825 5.88228 2.00096 6.25H17.9987C18.2114 5.88228 18.3332 5.45536 18.3332 5V4.16667C18.3332 3.24619 17.587 2.5 16.6665 2.5H3.33317Z" fill="currentColor"/>
<path fill-rule="evenodd" clip-rule="evenodd" d="M3.33307 15V7.5H16.6664V15C16.6664 16.3807 15.5471 17.5 14.1664 17.5H5.83307C4.45235 17.5 3.33307 16.3807 3.33307 15ZM11.8976 15.6242L9.96545 13.692L8.03263 15.6248L6.84064 14.4328L8.77346 12.5L6.84045 10.567L8.03244 9.375L9.96545 11.308L11.8978 9.37564L13.0898 10.5676L11.1574 12.5L13.0896 14.4322L11.8976 15.6242Z" fill="currentColor"/>
</svg>
