<svg viewBox="0 0 20 20" fill="none" xmlns="http://www.w3.org/2000/svg">
<path d="M9.0625 5V1.875H10.9375V5H9.0625Z" fill="currentColor"/>
<path d="M3.59185 4.91767L5.80156 7.12738L7.12738 5.80156L4.91767 3.59185L3.59185 4.91767Z" fill="currentColor"/>
<path d="M13.75 10C13.75 12.0711 12.0711 13.75 10 13.75C7.92893 13.75 6.25 12.0711 6.25 10C6.25 7.92893 7.92893 6.25 10 6.25C12.0711 6.25 13.75 7.92893 13.75 10Z" fill="currentColor"/>
<path d="M5 10.9375H1.875V9.0625H5V10.9375Z" fill="currentColor"/>
<path d="M15.0823 3.59185L12.8726 5.80156L14.1984 7.12738L16.4082 4.91767L15.0823 3.59185Z" fill="currentColor"/>
<path d="M15 10.9375H18.125V9.0625H15V10.9375Z" fill="currentColor"/>
<path d="M15.0823 16.4082L12.8726 14.1984L14.1984 12.8726L16.4082 15.0823L15.0823 16.4082Z" fill="currentColor"/>
<path d="M9.0625 15V18.125H10.9375V15H9.0625Z" fill="currentColor"/>
<path d="M3.59185 15.0823L5.80156 12.8726L7.12738 14.1984L4.91767 16.4082L3.59185 15.0823Z" fill="currentColor"/>
</svg>
