<svg viewBox="0 0 24 24" fill="none" xmlns="http://www.w3.org/2000/svg">
<path d="M6 17L9.94171 10.4305C8.77832 9.73096 8 8.45637 8 7C8 4.79086 9.79086 3 12 3C14.2091 3 16 4.79086 16 7C16 7.10041 15.9963 7.19996 15.989 7.29851" stroke="currentColor" stroke-width="1.5" stroke-linecap="round"/>
<path d="M12 7L15.9417 13.5695C16.543 13.2079 17.2472 13 18 13C20.2091 13 22 14.7909 22 17C22 19.2091 20.2091 21 18 21C17.0703 21 16.2147 20.6828 15.5355 20.1508" stroke="currentColor" stroke-width="1.5" stroke-linecap="round"/>
<path d="M10 17V16.25H9.25V17H10ZM4.75686 13.996C5.13951 13.8375 5.32117 13.3987 5.1626 13.016C5.00402 12.6334 4.56527 12.4517 4.18261 12.6103L4.75686 13.996ZM6 20.25C4.20507 20.25 2.75 18.7949 2.75 17H1.25C1.25 19.6234 3.37665 21.75 6 21.75V20.25ZM9.25 17C9.25 18.7949 7.79493 20.25 6 20.25V21.75C8.62335 21.75 10.75 19.6234 10.75 17H9.25ZM10 17.75H18V16.25H10V17.75ZM4.18261 12.6103C2.46234 13.3232 1.25 15.0191 1.25 17H2.75C2.75 15.6467 3.5774 14.4848 4.75686 13.996L4.18261 12.6103Z" fill="currentColor"/>
<rect x="10" y="5" width="4" height="4" rx="2" fill="currentColor"/>
<rect x="16" y="15" width="4" height="4" rx="2" fill="currentColor"/>
<rect x="4" y="15" width="4" height="4" rx="2" fill="currentColor"/>
</svg>
