<svg width="1411" height="1416" viewBox="0 0 1411 1416" fill="none" xmlns="http://www.w3.org/2000/svg">
<circle cx="709.55" cy="705.55" r="272.55" stroke="currentColor" stroke-width="2"/>
<circle cx="710.391" cy="706.391" r="340.391" stroke="currentColor" stroke-width="2"/>
<path d="M1119.65 706.325C1119.65 932.389 936.389 1115.65 710.325 1115.65C484.261 1115.65 301 932.389 301 706.325C301 480.261 484.261 297 710.325 297C936.389 297 1119.65 480.261 1119.65 706.325Z" stroke="currentColor" stroke-width="2"/>
<circle cx="710.26" cy="706.26" r="478.26" stroke="currentColor" stroke-width="2"/>
<circle cx="710.1" cy="706.1" r="546.1" stroke="currentColor" stroke-width="2"/>
<circle cx="710.047" cy="706.047" r="619.047" stroke="currentColor" stroke-width="2"/>
<circle cx="710" cy="706" r="700" stroke="currentColor" stroke-width="2"/>
<circle cx="776.5" cy="441.5" r="7" fill="white" stroke="currentColor" stroke-width="5"/>
<circle cx="710.5" cy="366.5" r="7" fill="white" stroke="currentColor" stroke-width="5"/>
<circle cx="512.5" cy="347.5" r="7" fill="white" stroke="currentColor" stroke-width="5"/>
<circle cx="964.5" cy="300.5" r="7" fill="white" stroke="currentColor" stroke-width="5"/>
<circle cx="654.5" cy="163.5" r="7" fill="white" stroke="currentColor" stroke-width="5"/>
<circle cx="899.5" cy="116.5" r="7" fill="white" stroke="currentColor" stroke-width="5"/>
<circle cx="760.5" cy="9.5" r="7" fill="white" stroke="currentColor" stroke-width="5"/>
<circle cx="507.5" cy="890.5" r="7" fill="white" stroke="currentColor" stroke-width="5"/>
<circle cx="1120.5" cy="710.5" r="7" fill="white" stroke="currentColor" stroke-width="5"/>
<circle cx="1031.5" cy="958.5" r="7" fill="white" stroke="currentColor" stroke-width="5"/>
<circle cx="1277.5" cy="295.5" r="7" fill="white" stroke="currentColor" stroke-width="5"/>
<circle cx="1395.5" cy="850.5" r="7" fill="white" stroke="currentColor" stroke-width="5"/>
<circle cx="781.5" cy="1248.5" r="7" fill="white" stroke="currentColor" stroke-width="5"/>
<circle cx="701.5" cy="1406.5" r="7" fill="white" stroke="currentColor" stroke-width="5"/>
<circle cx="268.5" cy="1138.5" r="7" fill="white" stroke="currentColor" stroke-width="5"/>
<circle cx="537.5" cy="1078.5" r="7" fill="white" stroke="currentColor" stroke-width="5"/>
<circle cx="1120.5" cy="1064.5" r="7" fill="white" stroke="currentColor" stroke-width="5"/>
<circle cx="191.5" cy="875.5" r="7" fill="white" stroke="currentColor" stroke-width="5"/>
<circle cx="9.5" cy="744.5" r="7" fill="white" stroke="currentColor" stroke-width="5"/>
<circle cx="279.5" cy="259.5" r="7" fill="white" stroke="currentColor" stroke-width="5"/>
<circle cx="279.5" cy="495.5" r="7" fill="white" stroke="currentColor" stroke-width="5"/>
<circle cx="1164.5" cy="553.5" r="7" fill="white" stroke="currentColor" stroke-width="5"/>
<circle cx="821.5" cy="1027.5" r="7" fill="white" stroke="currentColor" stroke-width="5"/>
<circle cx="369.5" cy="725.5" r="7" fill="white" stroke="currentColor" stroke-width="5"/>
<circle cx="973.5" cy="771.5" r="7" fill="white" stroke="currentColor" stroke-width="5"/>
</svg>
